<svg id="Layer_1" data-name="Layer 1" xmlns="http://www.w3.org/2000/svg" xmlns:xlink="http://www.w3.org/1999/xlink" viewBox="0 0 300.64 229.6"><defs><style>.cls-1,.cls-8,.cls-9{fill:#fff;}.cls-2{fill:#fcb53f;}.cls-3{fill:#2a2b26;}.cls-4{clip-path:url(#clip-path);}.cls-5{fill:#432b1b;fill-rule:evenodd;}.cls-6{clip-path:url(#clip-path-2);}.cls-7{clip-path:url(#clip-path-3);}.cls-8{font-size:40.46px;}.cls-8,.cls-9{font-family:DeVinneBT-Text, DeVinne Txt BT;}.cls-9{font-size:17.27px;}.cls-10{letter-spacing:-0.13em;}.cls-11{letter-spacing:-0.02em;}.cls-12{letter-spacing:-0.11em;}</style><clipPath id="clip-path" transform="translate(-155.68 -281.47)"><path class="cls-1" d="M261.48,362.1a43,43,0,1,0,43-43A43,43,0,0,0,261.48,362.1Z"/></clipPath><clipPath id="clip-path-2" transform="translate(-155.68 -281.47)"><path class="cls-2" d="M163.65,292.92H447.29v208.7H163.65Zm284.48-.83H162.82V502.45H448.13Z"/></clipPath><clipPath id="clip-path-3" transform="translate(-155.68 -281.47)"><path class="cls-2" d="M167.69,297H443.25V497.58H167.69Zm-.81,201.41H444.06V296.16H166.88Z"/></clipPath></defs><title>swadsadan1</title><rect class="cls-3" width="300.64" height="229.6"/><path class="cls-1" d="M261.48,362.1a43,43,0,1,0,43-43A43,43,0,0,0,261.48,362.1Z" transform="translate(-155.68 -281.47)"/><g class="cls-4"><path class="cls-1" d="M261.48,362.1a43,43,0,1,0,43-43A43,43,0,0,0,261.48,362.1Z" transform="translate(-155.68 -281.47)"/></g><path class="cls-5" d="M283.16,379.7s-.25-3.21,1.82-4.51c2.87-1.81,8.78-4.23,7.73-14.59s-5.93-18.37-11.18-18.07c-4.93-.2-10,7.93-10.82,18.3s5,12.49,7.55,14.43c1.92,1.42,1.77,4.47,1.77,4.47s-.1,2.51-.46,7.85c-.11,1.52-.35,5-.65,9.18a43.79,43.79,0,0,0,5.66,3.51c-.38-5.81-.71-10.85-.87-12.7C283.23,381.8,283.16,379.7,283.16,379.7Z" transform="translate(-155.68 -281.47)"/><path class="cls-5" d="M309.08,377.4c0-.3.05-.55.05-.71,0-1.24,5.13-4.05,5.62-8s-3-24.79-3.12-25.81-.6-1.17-.81-1.12-.17.22-.17.22.62,20.1.63,20.69,0,1.16-.66,1.18-.76-.84-.76-.84-1.08-19.29-1.23-20.52-.72-.25-.72-.25l-.07,20.48s.2,1.33-1,1.34c-.89,0-.76-1.34-.76-1.34L306,342.2s-.58-1-.73.25S304.06,363,304.06,363s-.08.86-.76.84-.67-.59-.66-1.18.63-20.69.63-20.69.05-.18-.17-.22-.67.1-.8,1.12-3.62,21.81-3.13,25.81,5.63,6.8,5.63,8c0,.14,0,.36,0,.63a75.77,75.77,0,0,1,0,9c-.15,2.59-.84,10.74-1.48,18.79h1.16a43,43,0,0,0,5.47-.34c-.41-8.16-.81-16.39-.88-18.85C308.88,379.91,309.07,377.55,309.08,377.4Z" transform="translate(-155.68 -281.47)"/><path class="cls-5" d="M333,386.73c0-.52,0-1,0-1.5l.19-39.61s.1-3.16-1.65-2.12-7.45,12.09-6.69,28.75c.7,15.35.14,15.86,1.93,16a10.37,10.37,0,0,0,1.28,0c-.11,2.2-.33,5.94-.6,10.21a42.9,42.9,0,0,0,5.78-4.33C333.09,390.71,333,388,333,386.73Z" transform="translate(-155.68 -281.47)"/><path class="cls-2" d="M163.65,292.92H447.29v208.7H163.65Zm284.48-.83H162.82V502.45H448.13Z" transform="translate(-155.68 -281.47)"/><g class="cls-6"><path class="cls-2" d="M163.65,292.92H447.29v208.7H163.65Zm284.48-.83H162.82V502.45H448.13Z" transform="translate(-155.68 -281.47)"/></g><path class="cls-2" d="M167.69,297H443.25V497.58H167.69Zm-.81,201.41H444.06V296.16H166.88Z" transform="translate(-155.68 -281.47)"/><g class="cls-7"><path class="cls-2" d="M167.69,297H443.25V497.58H167.69Zm-.81,201.42H444.06V296.16H166.88Z" transform="translate(-155.68 -281.47)"/></g><text class="cls-8" transform="translate(16.44 162.4) scale(1.1 1)">SwaaD SaDan</text><text class="cls-9" transform="translate(30.35 188.68) scale(1.07 1)">A <tspan class="cls-10" x="15.78" y="0">T</tspan><tspan x="24.99" y="0">asty </tspan><tspan class="cls-11" x="58.48" y="0">A</tspan><tspan x="69.49" y="0">uthentic Indian </tspan><tspan class="cls-12" x="182.6" y="0">F</tspan><tspan x="192.46" y="0">ooD</tspan></text></svg>