<?xml version="1.0" encoding="UTF-8"?>
<svg viewBox="0 0 1005 995" xmlns="http://www.w3.org/2000/svg">
 <g fill-rule="evenodd" stroke-width=".5">
  <g fill="#fff" stroke="#fff">
   <path d="m628.5 3.2l-12.5-3.2h389v867h-0.2q-0.3 0-0.8-1l-0.5-1-0.5 3.5-0.5 3.5h-0.5l-0.2-4.5q-0.3-4.5-3.3-36.5t-5.7-33.8q-2.8-1.7-11.3-4.2t-34.5-4.5-29.5-29.7l-3.5-27.8-0.2-2.5-0.3-2.5-0.5-1.5-0.5-1.5-0.3-0.2-0.2-0.3-0.2-0.3-0.3-0.2-0.5-1q-0.5-1-1-1.5t-2.5-6-7.7-10.3q-5.8-4.7-17.8-9.7t-28-9-46-6.5l-30-2.5-0.2-0.3-0.3-0.2-0.3-0.2-0.2-0.3-0.2-0.3-0.3-0.2v-3l0.5-2q0.5-2 3-9t9-30.5 10-48 4-53.5-0.5-41-5-35.5-11.5-48.5-18-48-23-43.5-27.5-39-31.5-34-27.2-23.5q-10.8-8-10.8-9t-1.5-1.5l-1.5-0.5v-0.5l0.2-0.3q0.3-0.2 11-15.4 10.8-15.3 27-35 16.3-19.8 22.8-32.8t7-23-0.5-14-6.5-15.5-13.2-21.3q-7.8-9.7-19-19-11.3-9.2-22-15-10.8-5.7-23.3-9z"/>
   <path d="m0 412v-412h606v0.2q0 0.3-4 0.8t-11.5 3-19.5 10-23.8 19.2q-11.7 11.8-23.7 27.3l-12 15.5-0.3 0.2-0.2 0.3-0.2 0.3-0.3 0.2-0.3 0.2-0.2 0.3-0.2 0.3-0.3 0.2-0.3 1-0.2 1-0.5 0.2-0.5 0.3-0.2 0.3-0.3 0.2-0.3 0.2-0.2 0.3-0.2 0.3-0.3 0.2-0.5 1-0.5 1-0.5 1q-0.5 1-5.2 7.8-4.8 6.7-20.8 32l-16 25.2h-0.8q-0.7 0-23.4 1.8-22.8 1.7-46.8 7.7t-44 14.5-39.2 19.8q-19.3 11.2-37.3 25.7t-32.5 29-29.5 34.5-26.5 40-21.5 44.5-17.5 54.5-8.5 37.5-1.3 8.5l-0.2 1-0.8 10q-0.7 10-1.2 11t-0.8 2l-0.2 1-6-0.8q-6-0.7-11-0.7t-9.8 3.3q-4.7 3.2-5.7 5.2t-1.5 3l-0.5 1-0.3 1.5-0.2 1.5-1-0.2-1-0.3-0.2-0.3-0.3-0.2-0.3-4-0.2-4h-2l0.2 4.5 0.3 4.5 0.3 0.2 0.2 0.3 6 3.5q6 3.5 8.5 3.2l2.5-0.2v0.5l-1.5 0.5-1.5 0.5-0.2 0.3-0.3 0.2-0.3 0.2-0.2 0.3 0.2 0.3 0.3 0.2 0.3 0.2 0.2 0.3 1 0.5 1 0.5 11 0.5q11 0.5 11 1.5t0.5 21.5-11.5 22.5-15 2.5l-3 0.5-1.5 0.3-1.5 0.2v4l1 0.2 1 0.3 9.5 1q9.5 1 30 0.7 20.5-0.2 20.5 0.8t7.5 0.8l7.5-0.3 3.5-0.3 3.5-0.2v3l-1.5 0.2-1.5 0.3-3 0.5q-3 0.5-38.5 1.5t-45-1.5l-9.5-2.5-1.5-0.5-1.5-0.5-1.5-0.3-1.5-0.2 0.2 1 0.3 1 0.5 1 0.5 1 0.3 0.2 0.2 0.3-0.2 0.3-0.3 0.2v2l0.3 1q0.2 1 4.4 2.5 4.3 1.5 4.8 2.5l0.5 1-0.7 3.2q-0.8 3.3-2.3 4.8t-3 1.8q-1.5 0.2-1.7 1.2l-0.3 1-0.3 1.5-0.2 1.5 2 0.2q2 0.3 3.5 0.8l1.5 0.5 0.2 0.3 0.3 0.2 0.3 1 0.2 1-4.8 0.5q-4.7 0.5-4.7 15t3.3 18.7q3.2 4.3 9.4 7 6.3 2.8 6.6 4.3 0.2 1.5 7.2 5.3 7 3.7 8 4.2l1 0.5 1 0.5 1 0.5 0.2 0.3 0.3 0.2 0.3 0.2 0.2 0.3-2.5 0.3q-2.5 0.2-2.5 1.2v1l1 0.2 1 0.3 3.5 1q3.5 1 19.5 1.5t20.5 0.5 9.7-0.7q5.3-0.8 5.6-0.8h0.2l2-0.2 2-0.3 1.5-0.5q1.5-0.5 3.5-1l2-0.5 1.5-0.5 1.5-0.5h3l-0.2 0.3-0.3 0.2-0.3 0.2-0.2 0.3-0.2 0.3-0.3 0.2-0.3 0.2-0.2 0.3-0.2 0.3-0.3 0.2-0.3 0.2-0.2 0.3-0.2 0.3-0.3 0.2-0.3 0.2-0.2 0.3-1 0.5-1 0.5-0.2 0.3-0.3 0.2-0.3 0.2-0.2 0.3-0.2 0.3-0.3 0.2-7.3 2.8q-7.2 2.7-9.7 3l-2.5 0.2v2l1 0.2 1 0.3 0.2 0.3 0.3 0.2v4l-0.3 0.2-0.2 0.3h5l1-0.5q1-0.5 14.5-6l13.5-5.5 1-0.5 1-0.5 1-0.5 1-0.5 1-0.5 1-0.5h4l-0.2 0.3-0.3 0.2-0.3 0.2-0.2 0.3-1 0.3-1 0.2v2l-1 0.2-1 0.3-1 0.5-1 0.5-1 0.5-1 0.5-15.2 7.3q-15.3 7.2-15.6 7.4l-0.2 0.3-0.2 0.3-0.3 0.2-0.3 0.2-0.2 0.3 0.8 0.7q0.7 0.8 0.4 1.8-0.2 1 0.8 1t9 15.2q8 15.3 11.2 20.6 3.3 5.2 3.8 6.2l0.5 1 0.5 1 0.5 1 0.3 0.2 0.2 0.3-0.2 0.3-0.3 0.2-0.3 0.5-0.2 0.5h-0.5l-0.3 0.5-0.2 0.5-17 4.2q-17 4.3-40 10.3t-31.5 11-8.7 5.3q-0.3 0.2-0.6 0.4l-0.2 0.3-0.2 0.3-0.3 0.2-0.3 0.2-0.2 0.3-0.2 0.3-0.3 0.2-0.5 1-0.5 1v5l0.3 0.2 0.2 0.3 0.2 0.3 0.3 0.2 0.3 0.2 0.2 0.3 0.2 0.3 0.3 0.2 0.3 0.2 0.2 0.3 1.5 0.5 1.5 0.5 16.5-0.5q16.5-0.5 40-4t42-3.5 20.5 0.5l2 0.5 1 0.5 1 0.5 0.2 0.3 0.3 0.2 0.3 0.2 0.2 0.3 0.2 0.3 0.3 0.2v4l-0.3 0.2-0.2 0.3-0.2 0.3-0.3 0.2-0.3 0.2-0.2 0.3-1 0.5-1 0.5-0.2 0.3-0.3 0.2-0.3 0.2-0.2 0.3-1.5 0.5q-1.5 0.5-19 0.5t-41 3.5-42 3.5h-18.5l-1-0.3-1-0.2 0.5 4q0.5 4-32 6.8-32.5 2.7-44.5 5.7t-13 3.5l-1 0.5-0.2 0.3-0.3 0.2-0.3 0.2-0.2 0.3-1 0.5-1 0.5-0.2 0.3-0.3 0.2-0.5 1-0.5 1h-0.5v-412z"/>
  </g>
  <path d="m908.2 724.8l0.3 0.2 0.3 0.2 0.2 0.3 0.2 0.3 0.3 0.2 0.3 0.2 0.2 0.3 0.2 0.3 0.3 0.2 0.3 0.2 0.2 0.3 0.2 0.3 0.3 0.2 0.3 0.2 0.2 0.3 0.2 0.3 0.3 0.2 0.5 1 0.5 1h0.5l3.5 27.8q3.5 27.7 29.5 29.7t34.5 4.5 11.3 4.2q2.7 1.8 5.7 33.8t3.3 36.5l0.2 4.5 0.2 2.5q0.3 2.5 0.3 11.5v9l-0.3-0.2-0.2-0.3-0.2-0.3-0.3-0.2-0.3-0.2-0.2-0.3-0.2-0.3-0.3-0.2-0.3-0.2-0.2-0.3-1-0.5q-1-0.5-2-1t-14-3-54.5-2.5-132 9.5-113 10-28.5-0.5l-6-1-1.5-0.5-1.5-0.5-1-0.3-1-0.2v-2l1.5-0.2 1.5-0.3 22-3q22-3 87.5-5.5t95.5-6 44-7.5 19.2-7.7q5.3-3.8 5.6-5.8l0.2-2h0.2q0.3 0 1-7.5 0.8-7.5-3.7-9.3-4.5-1.7-20-4.2t-36.5-3-61.5 3.5-96 14-156 33.5-182.5 41l-82 17.5-1 0.3-1 0.2-2 0.2q-2 0.3-29 5.3t-76 11.5-78 7-42.5-1.5-18.5-4.5-18.5-57.8l-13.5-55.2-0.2-3-0.3-3-0.3-2.5-0.2-2.5 1 0.2 1 0.3 1 0.5 1 0.5 15 2q15 2 48 0t75-9 94-20 150-43 98-30.3v-0.2l61.5-15.2q61.5-15.3 106.5-22.8t72.5-10 58.5-2 52.5 4 37 9.5 23.3 11.3q7.7 5.2 8.4 6 0.8 0.7 1 1z" fill="#fe0000" stroke="#fe0000"/>
  <g fill="#fecbcb" stroke="#fecbcb">
   <path d="m462.2 150h0.8l-0.2 0.5q-0.3 0.5-6.6 12.3-6.2 11.7-21.7 44.4-15.5 32.8-20.5 32.6-5-0.3-15.5-3.8t-14.5-2l-4 1.5-0.2 0.3-0.3 0.2-0.3 0.2-0.2 0.3-0.2 0.3-0.3 0.2v7q0 7 1 9t1.5 3l0.5 1 0.3 0.2 0.2 0.3-1 0.5q-1 0.5-7 3.5t-7.8 6.7l-1.7 3.8 0.5 4q0.5 4 6.2 6.2 5.8 2.3 7.3 2.8l1.5 0.5 0.2 0.3 0.3 0.2-2 4.5q-2 4.5-2.3 8.5l-0.2 4 1 0.2 1 0.3 5.5-0.5q5.5-0.5 7-1l1.5-0.5h2l0.2 0.3 0.3 0.2v2l-0.3 0.2-0.2 0.3-0.2 0.3-0.3 0.2-0.3 0.2-0.2 0.3-0.2 0.3-0.3 0.2-0.3 0.2-0.2 0.3-0.2 0.3-0.3 0.2-9 15.5q-9 15.5-15 32t-8 27.5-2 24v13h0.5l1.2 6.5q1.3 6.5 5.8 15.5t9.8 14.2q5.2 5.3 6.7 6.3t2.5 1.5l1 0.5 1 0.5 1 0.5 0.2 0.3 0.3 0.2 0.3 0.2 0.2 0.3 1 0.3 1 0.2v2l-5.5 0.2q-5.5 0.3-12 2.3t-28.5 14.3l-22 12.2h-0.2q-0.3 0-0.6 0.5l-0.2 0.5-1 0.2q-1 0.3-12 4.8l-11 4.5-1.5 0.5-1.5 0.5-1 0.5-1 0.5v0.5l-10 6.2q-10 6.3-16 9.3t-7.8 8.3q-1.7 5.2-2.7 14.7t7.5 22.5 17.2 21.2q8.8 8.3 18.8 13.8t16.8 7.8q6.7 2.2 9 7.2 2.2 5 9.7 9.2 7.5 4.3 8.5 4.8l1 0.5 0.2 0.3 0.3 0.2 0.3 0.2 0.2 0.3 0.2 0.3 0.3 0.2 0.3 0.2 0.2 0.3 0.2 0.3 0.3 0.2 0.3 0.2 0.2 0.3 0.2 0.3 0.3 0.2 0.3 0.2 0.2 0.3 0.5 0.3 0.5 0.2v0.5l0.2 0.3 0.3 0.2 0.3 0.2 0.2 0.3-5.5 0.5q-5.5 0.5-9.5 1t-12 3.5-14.5 7-33 4.5l-26.5 0.5-2 0.5-2 0.5-1 0.5-1 0.5-1 0.5-1 0.5 0.2 0.3 0.3 0.2 0.3 0.2 0.2 0.3 2.5 0.5 2.5 0.5 28 1q28 1 29 1.3 1 0.2 1.8 16.7 0.7 16.5 3.7 28t7.3 18.7q4.2 7.3 8.7 11.8t5.5 4.8q1 0.2 1 5.4 0 5.3 8 6.8t12.5-1.5 12-3.5 10 0l2.5 0.5 1.5 0.5 1.5 0.5 1 0.5 1 0.5 0.5 0.3 0.5 0.2-0.2 1-0.3 1-0.3 0.2-0.2 0.3h-5l-1 0.5q-1 0.5-8.5 3t-6 3-2.5 1.5-9.2 2.7q-5.3 1.8-29 9-23.8 7.3-35.8 10-12 2.8-12.2 3.8l-0.3 1-0.3 0.2-0.2 0.3-0.2 0.3-0.3 0.2-0.3 0.2-0.2 0.3-0.2 0.3-0.3 0.2-0.3 0.2-0.2 0.3-0.5 0.3-0.5 0.2 0.2-3.5q0.3-3.5 0.3-19t-1.5-28-6-28.5l-4.5-16-0.5-1.5-0.5-1.5-0.5-1-0.5-1-0.5-1-0.5-1-0.3-0.2-0.2-0.3-0.2-0.3-0.3-0.2-0.5 2.5-0.5 2.5-4.3 7.8q-4.2 7.7-10.7 14.2t-21.5 14.5-16.5 8.5-2.5 1l-1 0.5-1 0.3-1 0.2v-1q0-1 1-1.2l1-0.3-0.2-0.3-0.3-0.2-0.5-1-0.5-1-0.5-1q-0.5-1-3.8-6.2-3.2-5.3-11.2-20.6-8-15.2-9-15.2t-0.8-1q0.3-1-0.4-1.8l-0.8-0.7 0.2-0.3 0.3-0.2 0.3-0.2 0.2-0.3 0.2-0.3q0.3-0.2 15.6-7.4l15.2-7.3 1-0.5 1-0.5 1-0.5 1-0.5 1-0.3 1-0.2-0.2-1-0.3-1-0.3-0.2-0.2-0.3h-2l-1 0.5-1 0.5-1 0.5-1 0.5-13.5 5.5q-13.5 5.5-14.5 6l-1 0.5h-5l0.2-0.3 0.3-0.2v-4l-0.3-0.2-0.2-0.3-1-0.3-1-0.2v-2l2.5-0.2q2.5-0.3 9.7-3l7.3-2.8 0.3-0.2 0.2-0.3 0.2-0.3 0.3-0.2 0.3-0.2 0.2-0.3 1-0.5 1-0.5 0.2-0.3 0.3-0.2 0.3-0.2 0.2-0.3 0.2-0.3 0.3-0.2 0.3-0.2 0.2-0.3 0.2-0.3 0.3-0.2 0.3-0.2 0.2-0.3 0.2-0.3 0.3-0.2 0.3-0.2 0.2-0.3h-3l-1.5 0.5-1.5 0.5-2 0.5q-2 0.5-3.5 1l-1.5 0.5-2 0.3-2 0.2 0.2-0.5 0.3-0.5 0.3-0.2 0.2-0.3 0.2-0.3 0.3-0.2 0.3-0.2 0.2-0.3 0.2-0.3 0.3-0.2 0.3-0.2 0.2-0.3 0.2-0.3q0.3-0.2 1.8-1.7t2.2-5.5q0.8-4-2-4.5l-2.7-0.5v-3l0.3-0.2 0.2-0.3 1-0.5 1-0.5 1.5-0.5q1.5-0.5 3-1t9.3-4.8q7.7-4.2 12.2-9.7t5.2-14.5l0.8-9-6.5-0.2q-6.5-0.3-8.5-1.3l-2-1-0.2-0.3-0.3-0.2-0.3-0.2-0.2-0.3-0.2-0.3-0.3-0.2-0.3-0.2-0.2-0.3-0.2-0.3-0.3-0.2-0.3-1.5-0.2-1.5 4-0.2q4-0.3 4.2-6.6 0.3-6.2 5.3-10.2l5-4 0.3-4 0.2-4-2.5-0.2-2.5-0.3h-2q-2 0-11 1.3l-9 1.2-3.5 0.2-3.5 0.3-7.5 0.3q-7.5 0.2-7.5-0.8t-20.5-0.8q-20.5 0.3-30-0.7l-9.5-1-1-0.3-1-0.2v-4l1.5-0.2 1.5-0.3 3-0.5q3-0.5 15-2.5t11.5-22.5-0.5-21.5-11-1.5l-11-0.5-1-0.5-1-0.5-0.2-0.3-0.3-0.2-0.3-0.2-0.2-0.3 0.2-0.3 0.3-0.2 0.3-0.2 0.2-0.3 1.5-0.5 1.5-0.5v-0.5l4-0.2q4-0.3 8.5-1.3t9.3-4.3q4.7-3.2 6.2-7.7l1.5-4.5 0.3 0.2 0.2 0.3h1l0.2-0.3 0.3-0.2 0.5 2.5q0.5 2.5 0.8 1.5 0.2-1 1.2-1t0.8 3q-0.3 3 3.4 3.2 3.8 0.3 8.3-1.7t6.5-5.3q2-3.2 3-3.4 1-0.3 1.2-2.6 0.3-2.2-3-7.4-3.2-5.3-9.2-8.3t-12-1.3l-6 1.8-0.2-2-0.3-2-0.5-2q-0.5-2-0.8-2h-0.2l0.2-1q0.3-1 1.3-8.5t8.5-37.5 17.5-54.5 21.5-44.5 26.5-40 29.5-34.5 32.5-29 37.3-25.7q19.2-11.3 39.2-19.8t44-14.5 46.8-7.7q22.7-1.8 23.4-1.8zm-254.2 521.2l1 0.3-0.2 0.3-0.3 0.2-0.3 0.2-0.2 0.3-0.2 0.3q-0.3 0.2-0.6-0.8-0.2-1 0.8-0.8z"/>
   <path d="m644.8 204h0.2l1.5 0.5q1.5 0.5 1.5 1.5t10.8 9q10.7 8 27.2 23.5t31.5 34 27.5 39 23 43.5 18 48 11.5 48.5 5 35.5 0.5 41-4 53.5-10 48-9 30.5-3 9l-0.5 2v3l0.3 0.2 0.2 0.3 0.2 0.3 0.3 0.2 0.3 0.2 0.2 0.3 30 2.5q30 2.5 46 6.5t28 9 17.8 9.7q5.7 4.8 7.7 10.3t2.5 6 1 1.5l0.5 1 0.3 0.2 0.2 0.3 0.2 0.3 0.3 0.2 0.5 1.5 0.5 1.5 0.3 2.5 0.2 2.5h-0.5l-0.5-1-0.5-1-0.3-0.2-0.2-0.3-0.2-0.3-0.3-0.2-0.3-0.2-0.2-0.3-0.2-0.3-0.3-0.2-0.3-0.2-0.2-0.3-0.2-0.3-0.3-0.2-0.3-0.2-0.2-0.3-0.2-0.3-0.3-0.2-0.3-0.2q-0.2-0.3-1-1-0.7-0.8-8.4-6-7.8-5.3-23.3-11.3t-37-9.5-52.5-4-58.5 2-72.5 10-106.5 22.8l-61.5 15.2-0.5-0.2q-0.5-0.3-11.5 0.7t-11.5-0.3q-0.5-1.2-2-1l-1.5 0.3h-2l-0.2-0.3-0.3-0.2-0.3-0.2-0.2-0.3-0.2-0.3-0.3-0.2-0.5-1-0.5-1-0.3-0.2-0.2-0.3-0.2-0.3-0.3-0.2h-0.5v-0.5l1-0.5 1-0.5 1-0.5 1-0.5 0.2-0.3q0.3-0.2 2.3-3.7t5.5-14 4.8-32l1.2-21.5 21 0.8q21 0.7 23.8 2 2.7 1.2 3.7 10.7t2.7 12.7q1.8 3.3 17.3 3.6 15.5 0.2 17.7-5.3 2.3-5.5 4.6-14.7 2.2-9.3 19.2-9.3t20-0.5l3-0.5 1.5-0.5 1.5-0.5 1-0.5 1-0.5 0.2-0.3 0.3-0.2 0.3-0.2 0.2-0.3-0.2-0.3-0.3-0.2-0.3-0.2-0.2-0.3-1.5-0.5-1.5-0.5h-13q-13 0-18.5-0.5l-5.5-0.5-1.5-0.3-1.5-0.2 0.2-1 0.3-1 0.3-0.2 0.2-0.3 1-0.5 1-0.5 0.2-0.3 0.3-0.2 0.3-0.2 0.2-0.3 0.2-0.3 0.3-0.2 0.3-0.2 0.2-0.3 1-0.5q1-0.5 6-3.5t12.2-8.7q7.3-5.8 18.3-20.3t11.5-20-1-9-5-13-8.2-12.3q-4.8-2.7-11.3-15l-6.5-12.2-0.2-0.5q-0.3-0.5-0.6-0.5h-0.2l-0.2-1-0.3-1-0.5-1-0.5-1-0.3-0.2-0.2-0.3-0.2-0.3q-0.3-0.2-2.8-5.2t-10-15-11.8-13.5q-4.2-3.5-4.2-4.5t-10-6.8l-10-5.7-1-0.5-1-0.5-1.5-0.3-1.5-0.2 0.2-1 0.3-1 0.3-0.2 0.2-0.3 1-0.5 1-0.5 1-0.5q1-0.5 4.2-3.2 3.3-2.8 10-11 6.8-8.3 11.6-19 4.7-10.8 6.4-20.3l1.8-9.5 7-0.2q7-0.3 11-2.8t6.8-6.2q2.7-3.8 3.7-7.3t0.5-8.5-4.5-8.5-1-21 3.7-18.7q0.8-1.3 10.6-1 9.7 0.2 12.2-3.8t10.5-9.5 8.5-6.5l0.5-1 0.5-1 0.5-1v-5l-0.3-0.2-0.2-0.3-0.2-0.3-0.3-0.2-0.3-0.2-0.2-0.3-1-0.5q-1-0.5-12.5-4t-14.3-5.2q-2.7-1.8-0.4-17.8l2.2-16h0.5l0.5-1.5 0.5-1.5 0.5-1.5 0.5-1.5 7.5-16.5q7.5-16.5 14.5-27.5t7.3-11zm-173.6 538.2q0.3-0.2 0.6 0 0.2 0.3-0.3 0.3t-0.3-0.3z"/>
  </g>
  <path d="m617.5 899l3.5-0.5 1.5-0.3 1.5-0.2h1q1 0 1 3.5v3.5h4v0.5l-0.2 0.3-0.3 0.2-0.3 0.2-0.2 0.3v1q0 1 2.2 4.3 2.3 3.2-0.2 4.7t-2.5 2.5v1l0.3 0.2 0.2 0.3 1 0.5 1 0.5 0.2 0.3q0.3 0.2 0.6 0.4l0.2 0.3 10.5 2.5q10.5 2.5 42.5 2.5t87.5-6.5 85.5-9.5 37.8-3.3q7.7-0.2 9.4 4.6 1.8 4.7 2.8 9.2t2.2 4.8q1.3 0.2 1.3 2.7t0.3 4l0.2 1.5 1.2-0.5q1.3-0.5 1-1.5-0.2-1 2-0.5 2.3 0.5 23 0 20.8-0.5 21.3-1.3 0.5-0.7 7.5-0.7t15-2 11-2.3q3-0.2 3.5-2.2t3-2.2l2.5-0.3 0.2-0.3 0.3-0.2v-1l-0.3-0.2-0.2-0.3 0.2-0.3 0.3-0.2 0.3-0.2 0.2-0.3 0.5-0.3 0.5-0.2v77h-869v-0.5l47.5-6.5q47.5-6.5 127-22t191.5-41 115.5-26z" fill="#fff" stroke="#fff"/>
  <path d="m488.5 286l1.5 0.5 1 0.3 1 0.2v0.5l2 0.5 2 0.5 20 4.5q20 4.5 31.5 5.8 11.5 1.2 14.7 16.2 3.3 15 4 30 0.8 15-2.2 14.2-3-0.7-5.2 2.6-2.3 3.2-3.8 8.7t-1.8 9.5l-0.2 4 1 0.2 1 0.3 2.8 0.7q2.7 0.8 3 2.3 0.2 1.5 6.2-0.3 6-1.7 9.5-3.2t9-1.5h5.5l0.2 0.3 0.3 0.2 0.3 0.2 0.2 0.3 0.2 0.3 0.3 0.2 0.5 1.5 0.5 1.5v3.5q0 3.5-2 7.5t-5.7 6.2q-3.8 2.3-11.3 2.3t-8.3 4.3q-0.7 4.2-3.7 14.7t-9.5 21.5-13.8 17.2q-7.2 6.3-16.7 10.3t-21 5l-11.5 1-1-0.3-1-0.2-7.5-0.2q-7.5-0.3-16.5-0.3t-13.5 1-8 3.5-6.5 3-7.5-2-9.3-8.8q-4.7-6.2-8.4-8-3.8-1.7-15.8-7.7t-18.5-13.5-10.5-18.2l-4-10.8 0.2-10.5q0.3-10.5 0.8-13.5l0.5-3 0.5-2.5 0.5-2.5 0.5-2 0.5-2 1.3 6.2q1.2 6.3 2 7.6 0.7 1.2 1 2.2l0.2 1 1 0.2 1 0.3h4l0.2-0.3 0.3-0.2 0.3-0.2 0.2-0.3 2.5-0.3 2.5-0.2 0.2-1 0.3-1 0.5-1q0.5-1 0.5-10.5v-9.5l-0.3-0.2-0.2-0.3-0.2-0.3-0.3-0.2-0.3-0.2-0.2-0.3-0.2-0.3-0.3-0.2-0.3-1-0.2-1-1-0.2-1-0.3-4-0.3q-4-0.2-5.2 3.3l-1.3 3.5-0.5 1-0.5 1-0.3 0.2-0.2 0.3-0.2 0.3-0.3 0.2v-3l0.5-1.5 0.5-1.5 7-18q7-18 18.3-38.2 11.2-20.3 24.4-39.6 13.3-19.2 14.3-19.2t20.3 10.2q19.2 10.3 27.2 13.3t9.5 3.5zm-60.5 33q4-0.5 5.8 2.2 1.7 2.8 1.7 6.8t-1.3 5.2q-1.2 1.3-5.2 1.8t-6.2-1.2q-2.3-1.8-3-6.8-0.8-5 1.7-6.2 2.5-1.3 6.5-1.8zm66.2 26.5l0.8-4.5 6.8 0.5q6.7 0.5 6.4 7.7-0.2 7.3-5.2 7.3t-7.2-3.3q-2.3-3.2-1.6-7.7zm-87.2 40.3l-1-3.8 1.8 1q1.7 1 4.4 4.8 2.8 3.7 9.3 8.7t16.5 8 12.5 3.5 19.5 0.5h17l2-0.3 2-0.2-0.2 2.5-0.3 2.5-0.5 2q-0.5 2-3.5 8.5t-7.7 12.3q-4.8 5.7-13.8 10.7t-17 6-13-0.5-8.8-4.8q-3.7-3.2-6.7-9.2t-4-23-4.3-21.2q-3.2-4.3-4.2-8z" fill="#fdf6f7" stroke="#fdf6f7"/>
  <g fill="#fefefe" stroke="#fefefe">
   <path d="m612 256l-0.5 1-0.5 1.5-0.5 1.5-0.3 1-0.2 1-0.2 1q-0.3 1-4 16-3.8 15-25.8 15.2-22 0.3-32.5-0.7t-30-5l-19.5-4-0.2-0.3-0.3-0.2h-0.5l-1-0.2-1-0.3-1.5-0.5-1.5-0.5-1.5-0.5q-1.5-0.5-8-3t-20.5-10.5-23.5-17-10.3-11.3q-0.7-2.2 3.3-12.2l4-10 0.5-1.5 0.5-1.5 0.3-0.2 0.2-0.3 0.2-0.3 0.3-0.2 0.3 0.2 0.2 0.3 0.2 0.3 0.3 0.2 0.3 0.2 0.2 0.3 0.2 0.3 0.3 0.2 0.3 0.2 0.2 0.3 0.2 0.3 0.3 0.2 0.3 0.2 0.2 0.3 9.5 8.5q9.5 8.5 25 17.5t30.5 14.5 28.5 8 33 2.5 23-0.5l3.5-0.5 2.5-0.5 2.5-0.5 1-0.5 1-0.5h-10q-10 0-19.5 0t-22-2-33.5-9-39-17-18.8-12.3q-0.7-2.2 9.8-23.7t25-44 36.8-51.7l22.2-29.3 0.2-0.3 0.3-0.2 0.3-0.2 0.2-0.3 0.2-0.3 0.3-0.2 0.3-0.2 0.2-0.3 0.2-0.3 0.3-0.2 0.3-0.2 0.2-0.3 0.2-0.3 0.3-0.2 0.5-1 0.5-1 0.3-0.2 0.2-0.3 0.2-0.3 0.3-0.2 0.3-0.2 0.2-0.3h-2l-0.2 0.3-0.3 0.2-0.3 0.2-0.2 0.3-1 0.5-1 0.5-0.2 0.3-0.3 0.2-0.3 0.2-0.2 0.3-0.2 0.3-0.3 0.2-0.3 0.2-0.2 0.3-0.2 0.3-0.3 0.2-0.3 0.2-0.2 0.3-0.2 0.3q-0.3 0.2-5 4.4-4.8 4.3-20 23-15.3 18.8-28.8 39.3t-27.5 48.5l-14 28-0.5 1-0.5 1-0.3 0.2-0.2 0.3h-2l-1-0.5-1-0.5-0.2-0.3-0.3-0.2-0.3-0.2-0.2-0.3-0.2-0.3-0.3-0.2-0.3-0.2-0.2-0.3-0.2-0.3-0.3-0.2-0.3-0.2-0.2-0.3-0.2-0.3-0.3-0.2-0.5-1-0.5-1v-9q0-9 12.5-34t29.2-51.2q16.8-26.3 18.6-28.6 1.7-2.2 2.2-3.2l0.5-1 0.5-1 0.5-1 0.3-0.2 0.2-0.3 0.2-0.3q0.3-0.2 0.6-0.7l0.2-0.5h0.2q0.3 0 0.6-0.5l0.2-0.5h0.2q0.3 0 0.6-0.5l0.2-0.5v-0.5l0.2-0.3 0.3-0.2 0.3-0.2 0.2-0.3 0.2-0.3 0.3-0.2 0.3-0.2 0.2-0.3 0.2-0.3 0.3-0.2 0.3-0.2 0.2-0.3 0.2-0.3 0.3-0.2 12.3-15.2q12.2-15.3 23.7-26.3t21-17 21-9.5 22-3 21 4 20.7 10.8q10.3 7.2 13.8 10.2t3.8 4q0.2 1 4 4.5 3.7 3.5 11.2 14t11.5 20.5 5 14.5 0.5 13.5-14.2 27.8q-13.8 18.7-33 44.4-19.3 25.8-29.3 43.8t-14 27.5-4.5 10.5z"/>
   <path d="m407.8 475.8l0.2-0.3 1-0.3 1-0.2 0.2 1 0.3 1-0.5 8q-0.5 8-3.5 17t-3.5 11l-0.5 2-0.3 1.5-0.2 1.5 0.2 10q0.3 10 9 13.2 8.8 3.3 26.3 5.8t35.5 2 22.2-3.8q4.3-3.2 6.3-9.7t3.5-26 1.8-21l0.2-1.5 3.5-1.8q3.5-1.7 5-2.2l1.5-0.5 1.5-0.5 1.5-0.5 1.5-0.5 1.5-0.5 1-0.3 1-0.2-0.2 2-0.3 2-1.5 9q-1.5 9-1 28t3.5 29.5 3.5 11.5l0.5 1 0.5 1 0.5 1h0.5v0.5l0.2 0.3 0.3 0.2 0.5 1 0.5 1 0.5 1 0.5 1 0.3 0.2 0.2 0.3 0.2 0.3 0.3 0.2 0.3 0.2q0.2 0.3 1.4 1.6 1.3 1.2 7 4.7 5.8 3.5 6.6 6.5 0.7 3 1.2 12.5t-1 15-6.5 13.5-17.7 19.8q-12.8 11.7-32.8 12.2t-22.8-1.8q-2.7-2.2-11.4-6-8.8-3.7-20.3-5.7l-11.5-2-3-0.3-3-0.2-1.5-0.2q-1.5-0.3-15.5-1.3l-14-1-2.5-0.5-2.5-0.5 0.2-0.3 0.3-0.2 0.3-0.2 0.2-0.3 0.2-0.3 0.3-0.2 0.3-0.2 0.2-0.3 0.2-0.3 0.3-0.2 0.3-0.2q0.2-0.3 2-2.6 1.7-2.2 2.2-8.7t-3-16.5-4-16l-0.5-6 0.5-1.5 0.5-1.5 0.3-1 0.2-1-1 0.2-1 0.3-1 0.5-1 0.5-0.2 0.3-0.3 0.2-0.5 1-0.5 1-0.5 1-0.5 1v5.5q0 5.5 4 15t4 14v4.5l-0.5 1.5-0.5 1.5-0.5 1-0.5 1-0.3 0.2-0.2 0.3-0.2 0.3-0.3 0.2-0.3 0.2-0.2 0.3h-1l-0.2-0.3-0.3-0.2-0.5-1-0.5-1v-2l0.5-2.5q0.5-2.5 0.5-5t-1-4-6-8.5-7.7-17.5l-2.8-10.5 0.2-8q0.3-8 0.8-11.5t5.2-18.5l4.8-15h0.2q0.3 0 4.8-9t13.8-22.8l9.2-13.7 0.2-0.3 0.3-0.2 0.3-0.2 0.2-0.3 0.2-0.3 0.3-0.2 0.5-1 0.5-1 0.3-0.2 0.2-0.3 0.2-0.3 0.3-0.2 0.3-0.2zm2 87.4l1.2-1.7 5.2 0.3q5.3 0.2 6.8 3.7t1.5 6.5v3l-0.3 0.2q-0.2 0.3-1.7 1.3t-6.5 0.3q-5-0.8-5.8-2.3-0.7-1.5-1.2-5.5t0.8-5.8zm92.4 31l-0.2 0.3-0.2 0.3-0.3 0.2-0.5 1-0.5 1-0.3 0.2-0.2 0.3-1 0.5q-1 0.5-6 3t-13 3-14-1.5-6.2-5.7q-0.3-3.8 1-4.3 1.2-0.5 1-1.5-0.3-1-3-2.2-2.8-1.3-3-4l-0.3-2.8 0.3-0.2 0.2-0.3 0.2-0.3 0.3-0.2 4.7-3.2q4.8-3.3 8.3-4.3t10.5-0.5 8.2 1.2q1.3 0.8 0.8 5.3t-0.2 5.3q0.2 0.7 7.7 3.7t6.7 4.3q-0.7 1.2-1 1.4z"/>
  </g>
  <path d="m202 572.5h2l2.5 0.3 2.5 0.2-0.2 4-0.3 4-5 4q-5 4-5.3 10.2-0.2 6.3-4.2 6.6l-4 0.2 0.2 1.5 0.3 1.5 0.3 0.2 0.2 0.3 0.2 0.3 0.3 0.2 0.3 0.2 0.2 0.3 0.2 0.3 0.3 0.2 0.3 0.2 0.2 0.3 2 1q2 1 8.5 1.3l6.5 0.2-0.8 9q-0.7 9-5.2 14.5t-12.2 9.7q-7.8 4.3-9.3 4.8t-3 1l-1.5 0.5-1 0.5-1 0.5-0.2 0.3-0.3 0.2v3l2.7 0.5q2.8 0.5 2 4.5-0.7 4-2.2 5.5t-1.8 1.7l-0.2 0.3-0.2 0.3-0.3 0.2-0.3 0.2-0.2 0.3-0.2 0.3-0.3 0.2-0.3 0.2-0.2 0.3-0.2 0.3-0.3 0.2-0.3 0.5-0.2 0.5h-0.2q-0.3 0-10 2-9.8 2-9.8 0.5t-16-1.7q-16-0.3-19.5-1.3l-3.5-1-1-0.3-1-0.2v-1q0-1 2.5-1.2l2.5-0.3-0.2-0.3-0.3-0.2-0.3-0.2-0.2-0.3-1-0.5-1-0.5-1-0.5q-1-0.5-8-4.2-7-3.8-7.2-5.3-0.3-1.5-6.6-4.3-6.2-2.7-9.4-7-3.3-4.2-3.3-18.7t4.7-15l4.8-0.5-0.2-1-0.3-1-0.3-0.2-0.2-0.3-1.5-0.5q-1.5-0.5-3.5-0.8l-2-0.2 0.2-1.5 0.3-1.5 0.3-1q0.2-1 1.7-1.2 1.5-0.3 3-1.8t2.3-4.8l0.7-3.2-0.5-1q-0.5-1-4.8-2.5-4.2-1.5-4.4-2.5l-0.3-1v-2l0.3-0.2 0.2-0.3-0.2-0.3-0.3-0.2-0.5-1-0.5-1-0.3-1-0.2-1 1.5 0.2 1.5 0.3 1.5 0.5 1.5 0.5 9.5 2.5q9.5 2.5 45 1.5t38.5-1.5l3-0.5 1.5-0.3 1.5-0.2v-3l9-1.2q9-1.3 11-1.3z" fill="#fe7d00" stroke="#fe7d00"/>
  <path d="m920.5 861.8l0.5 0.2-0.2 2q-0.3 2-5.6 5.8-5.2 3.7-19.2 7.7t-44 7.5-95.5 6-87.5 5.5l-22 3-1.5 0.3-1.5 0.2v2l-0.5-0.2q-0.5-0.3-2-0.3t-4.3 1.7l-2.7 1.8-0.3 0.2-0.2 0.3-0.2 0.3-0.3 0.2-0.3 0.2-0.2 0.3h-1l-0.2-0.3-0.3-0.2-0.5-3-0.5-3h-0.5l-0.2-2.5-0.3-2.5-0.5-2.5q-0.5-2.5-0.8-4l-0.2-1.5 64.5-12.2q64.5-12.3 99.5-16.3t71-4 45.5 2.5 10.5 3.5 1.5 1.3z" stroke="#000"/>
  <path d="m323.5 651l1.5-0.5 2.5-0.3 2.5-0.2v2l-1 0.2-1 0.3-1 0.5-1 0.5-2.2 1.3q-2.3 1.2-2.3 4.2v3l0.5 1 0.5 1 0.3 0.2 0.2 0.3 0.2 0.3 0.3 0.2 0.3 0.2 0.2 0.3 0.2 0.3 0.3 0.2 0.3 0.2 0.2 0.3 4.5 2q4.5 2 9.5 2.7 5 0.8 5.2 9.3 0.3 8.5 0.8 10l0.5 1.5 0.5 1 0.5 1 0.3 0.2 0.2 0.3h2q2 0 4.5-2.5l2.5-2.5 0.2-0.3 0.3-0.2 0.3 0.2 0.2 0.3 0.2 0.3 0.3 0.2 0.3 0.2 0.2 0.3 0.2 0.3 0.3 0.2 1 4.5q1 4.5 1.5 7.5l0.5 3 0.5 1 0.5 1 0.3 0.2 0.2 0.3 0.2 0.3 0.3 0.2 0.3 0.2 0.2 0.3h4l0.2-0.3 0.3-0.2 0.3-0.2 0.2-0.3 1-0.5 1-0.5 0.2-0.3 0.3-0.2 0.5-1 0.5-1 0.5-1q0.5-1 1.8-14.5l1.2-13.5 14.8 0.5q14.7 0.5 16.2 6t1.8 5.7q0.2 0.3 0.4 0.6l0.3 0.2 0.3 0.2 0.2 0.3 1 0.5 1 0.5h3l1-0.5 1-0.5 0.2-0.3 0.3-0.2 0.3-0.2 0.2-0.3 0.2-0.3 0.3-0.2 0.5-1.5 0.5-1.5 0.5-1.5 0.5-1.5 0.3-2 0.2-2h0.5l0.7-1.8q0.8-1.7 12.8-4.7t13-3.5 2-1l1-0.5 0.2-0.3 0.3-0.2 0.3-0.2 0.2-0.3 0.2-0.3 0.3-0.2 0.5-1 0.5-1 0.3-0.2 0.2-0.3 0.2-0.3 0.3-0.2v-2q0-2-0.5-3t-3.8-2.8l-3.2-1.7-1-0.5-1-0.5 2-0.5 2-0.5 0.2-0.3 0.3-0.2 0.3 0.2 0.2 0.3 2 0.5 2 0.5 5.8 3.3q5.7 3.2 4.7 31.2t-4.7 36.2q-3.8 8.3-4.6 9.6-0.7 1.2-1 1.4l-0.2 0.3-0.2 0.3-0.3 0.2-0.3 0.2-0.2 0.3-0.2 0.3-0.3 0.2-0.3 0.2-0.2 0.3-0.2 0.3-0.3 0.2v2h0.5l-0.2 1.5q-0.3 1.5-4.6 4.7-4.2 3.3-8.7 4.8t-16 3.8l-11.5 2.2-0.2-1-0.3-1-0.3-0.2-0.2-0.3-0.2-0.3-0.3-0.2h-0.5v-0.5l1.5-0.5 1.5-0.5 1-0.5 1-0.5h-7l-6 0.5q-6 0.5-14 0.5t-22.5-2-24-6-14.3-8.7q-4.7-4.8-8.7-14.3t-5.3-36.5q-1.2-27 3.3-28.8l4.5-1.7 1-0.5 1-0.5 1.5-0.5zm124.7 87.2l0.3-0.2 0.3 0.2q0.2 0.3-0.3 0.3h-0.5l0.2-0.3z" fill="#e5e5fd" stroke="#e5e5fd"/>
  <path d="m253 695.5l0.5-2.5 0.3 0.2 0.2 0.3 0.2 0.3 0.3 0.2 0.5 1 0.5 1 0.5 1 0.5 1 0.5 1.5 0.5 1.5 4.5 16q4.5 16 6 28.5t1.5 28-0.3 19l-0.2 3.5h-0.2q-0.3 0-11.6 3.2-11.2 3.3-50.2 12.3t-84 15-77 6-36.5-1.5l-4.5-1.5-1-0.5-1-0.5-0.2-0.3-0.3-0.2-0.3-0.2-0.2-0.3-0.2-0.3-0.3-0.2-0.5-1-0.5-1h-0.5v-1h0.5l0.5-1 0.5-1 0.3-0.2 0.2-0.3 1-0.5 1-0.5 0.2-0.3 0.3-0.2 0.3-0.2 0.2-0.3 1-0.5q1-0.5 13-3.5t44.5-5.7q32.5-2.8 32-6.8l-0.5-4 1 0.2 1 0.3h18.5q18.5 0 42-3.5t41-3.5 19-0.5l1.5-0.5 0.2-0.3 0.3-0.2 0.3-0.2 0.2-0.3 1-0.5 1-0.5 0.2-0.3 0.3-0.2 0.3-0.2 0.2-0.3 0.2-0.3 0.3-0.2v-4l-0.3-0.2-0.2-0.3-0.2-0.3-0.3-0.2-0.3-0.2-0.2-0.3-1-0.5-1-0.5-2-0.5q-2-0.5-20.5-0.5t-42 3.5-40 4l-16.5 0.5-1.5-0.5-1.5-0.5-0.2-0.3-0.3-0.2-0.3-0.2-0.2-0.3-0.2-0.3-0.3-0.2-0.3-0.2-0.2-0.3-0.2-0.3-0.3-0.2v-5l0.5-1 0.5-1 0.3-0.2 0.2-0.3 0.2-0.3 0.3-0.2 0.3-0.2 0.2-0.3 0.2-0.3q0.3-0.2 0.6-0.4 0.2-0.3 8.7-5.3t31.5-11 40-10.3l17-4.2 0.5-0.2q0.5-0.3 0.5-0.6v-0.2l1.5-0.2q1.5-0.3 3-0.8t16.5-8.5 21.5-14.5 10.7-14.2l4.3-7.8 0.5-2.5z" fill="#fe0000" stroke="#fe0000"/>
  <path d="m921.2 862h-0.2l-0.5-0.2q-0.5-0.3-1.5-1.3t-10.5-3.5-45.5-2.5-71 4-99.5 16.3l-64.5 12.2 0.2 1.5q0.3 1.5 0.8 4l0.5 2.5 0.3 2.5 0.2 2.5v5h-4v-3.5q0-3.5-1-3.5h-1v-0.5h-5l-0.2-0.3-0.3-0.2-0.3 0.2-0.2 0.3h-1l-0.2-0.3-0.3-0.2-0.3 0.2-0.2 0.3-2 0.5q-2 0.5-78.5 18t-90 19.5-44 6.5-68 10.8q-37.5 6.2-37.7 4.7-0.3-1.5-2.8-2t-6.2-1.3l-3.8-0.7-0.2-0.3-0.3-0.2-0.3-0.2-0.2-0.3-0.2-0.3-0.3-0.2-0.3-0.2-0.2-0.3 2-0.3 2-0.2v-2l-1.5-0.2-1.5-0.3v-0.5l1-0.2 1-0.3 82-17.5q82-17.5 182.5-41t156-33.5 96-14 61.5-3.5 36.5 3 20 4.2q4.5 1.8 3.7 9.3-0.7 7.5-1 7.5z" fill="#f1e4e0" stroke="#f1e4e0"/>
  <path d="m526.2 507l0.8-20 7 1.8q7 1.7 14.2 6 7.3 4.2 14.3 11.2t12.5 16.5 6 10.5l0.5 1 0.5 1 0.5 1 0.5 1 0.5 1h0.5l4.2 10.5q4.3 10.5 4.8 11.5l0.5 1 0.3 1 0.2 1-1 0.2-1 0.3-3 0.5q-3 0.5-14 4.5t-17 6l-6 2-0.2-0.3-0.3-0.2-0.5-1q-0.5-1-3.5-12l-3-11-0.5-1.5-0.5-1.5-0.5-1-0.5-1-0.3-0.2-0.2-0.3-1-0.3-1-0.2-0.2 1-0.3 1v4.5q0 4.5 0.5 7l0.5 2.5 0.5 1.5 0.5 1.5 0.3 0.2 0.2 0.3 0.2 0.3 0.3 0.2 0.3 0.2 0.2 0.3h-2l-1-0.5-1-0.5-0.2-0.3-0.3-0.2h-0.5l-0.2-0.5-0.3-0.5h-0.5l-0.2-0.5-0.3-0.5h-0.5l-0.2-0.5-0.3-0.5-0.3-0.2-0.2-0.3-0.2-0.3-0.3-0.2-0.5-1q-0.5-1-2-4t-4-16-1.8-33z" fill="#fd0000" stroke="#fd0000"/>
  <path d="m498.8 488.5l0.2-2.5 1.2 0.5q1.3 0.5 2 1.7 0.8 1.3 1.8 1 1-0.2 1.8-1.7 0.7-1.5 1-1l0.2 0.5-0.2 1.5q-0.3 1.5-1.8 21t-3.5 26-6.3 9.7q-4.2 3.3-22.2 3.8t-35.5-2-26.3-5.8q-8.7-3.2-9-13.2l-0.2-10 0.5-0.2 0.5-0.3 0.2-0.3 0.3-0.2 0.3-0.2 0.2-0.3 0.2-0.3 0.3-0.2 0.3 2 0.2 2h3l0.2-2 0.3-2 0.5-1.5q0.5-1.5 2-6.5l1.5-5 0.5-2 0.5-2 0.3-0.2 0.2-0.3 0.2-0.3 0.3-0.2 0.3 0.2 0.2 0.3 1 0.3 1 0.2 0.2 1.5 0.3 1.5 0.3 0.2 0.2 0.3 0.2 0.3 0.3 0.2 0.3 0.2 0.2 0.3 0.2 0.3 0.3 0.2 0.5 1 0.5 1 0.3 0.2 0.2 0.3 0.2 0.3 0.3 0.2 0.3 0.2 0.2 0.3 0.2 0.3 0.3 0.2 0.5 1 0.5 1 0.3 0.2 0.2 0.3h-2q-2 0-3.5-0.7l-1.5-0.8 0.2 1 0.3 1 0.5 1.5 0.5 1.5 3.7 3.8q3.8 3.7 5.8 4.7t8 1h6l1-0.5 1-0.5 0.2-0.3 0.3-0.2 0.3-0.2 0.2-0.3-0.2-0.3-0.3-0.2-0.3-0.2-0.2-0.3-2.5-0.5-2.5-0.5-0.2-0.3-0.3-0.2-0.3-1-0.2-1 6.2-1.5q6.3-1.5 21.6-12.7 15.2-11.3 16.7-11.8l1.5-0.5 1-0.5 1-0.5 0.2-0.3 0.3-0.2 0.3-0.2 0.2-0.3 0.2-0.3 0.3-0.2h0.5l2 0.2 2 0.3-0.2 0.3-0.3 0.2-0.5 1.5-0.5 1.5-0.3 0.2-0.2 0.3-0.2 0.3-0.3 0.2-0.3 0.2-0.2 0.3-0.2 0.3-0.3 0.2-6 9.5q-6 9.5-6.5 10.5l-0.5 1-0.3 0.2-0.2 0.3-0.2 0.3-0.3 0.2-0.5 1-0.5 1-0.3 0.2-0.2 0.3-0.2 0.3-0.3 0.2-0.3 1-0.2 1 2.5-0.2 2.5-0.3 1-0.5 1-0.5 0.2-0.3 0.3-0.2 0.3-0.2 0.2-0.3 0.2-0.3 0.3-0.2 0.3-0.2 0.2-0.3 1-0.5q1-0.5 2.2-2.2 1.3-1.8 7.8-12.8t6.8-13.5z" fill="#f70006" stroke="#f70006"/>
  <g fill="#fdf7f7" stroke="#fdf7f7">
   <path d="m605.8 605l-0.3 2-2 5.5q-2 5.5-6 11t-15.3 14.3q-11.2 8.7-17.4 15-6.3 6.2-7.3 15.7t-3 15-14.7 5q-12.8-0.5-14-11.5-1.3-11-3.6-16.5-2.2-5.5-1.2-5.7 1-0.3 5.5-3.8t12.7-13.2q8.3-9.8 16-18.6 7.8-8.7 14.8-13.2t16-5 14.5 0.8q5.5 1.2 5.3 3.2z"/>
   <path d="m303.8 553.5l0.2 0.5 1.5 4.8q1.5 4.7 18.3 24 16.7 19.2 17.2 19.7t0.8 0.7l0.2 0.3 0.2 0.3 0.3 0.2 0.3 0.2 0.2 0.3 1.5 0.5 1.5 0.5 2.5 0.3 2.5 0.2 9.5 2.2q9.5 2.3 10.5 2.8t1.2 0.8l0.3 0.2 0.3 0.2 0.2 0.3 1 0.5 1 0.5 0.2 0.3 0.3 0.2 0.3 0.2 0.2 0.3 0.2 0.3 0.3 0.2 0.5 1 0.5 1v3l-0.3 0.2-0.2 0.3-1 0.3-1 0.2-0.2-1-0.3-1-0.3-0.2q-0.2-0.3-2.2-1.8l-2-1.5-2-0.3-2-0.2 0.2 1.5 0.3 1.5 0.5 1 0.5 1 0.3 0.2 0.2 0.3 0.2 0.3 0.3 0.2 2 2.5q2 2.5 2.5 3.5l0.5 1 0.3 3 0.2 3-1.5-0.2-1.5-0.3-0.2-0.3-0.3-0.2-0.3-0.2-0.2-0.3-0.2-0.3-0.3-0.2-0.3-0.2-0.2-0.3-0.2-0.3-0.3-0.2-0.3-0.2q-0.2-0.3-2-2.6l-1.7-2.2-0.3-0.2-0.2-0.3-0.2-0.3-0.3-0.2-0.3-0.2-0.2-0.3h-4l-0.2 0.3-0.3 0.2v2l0.3 0.2 0.2 0.3 1.2 1.3q1.3 1.2 1.8 2.7l0.5 1.5 0.3 0.2 0.2 0.3-0.2 0.3-0.3 0.2-0.3 1-0.2 1-3-0.2-3-0.3-1-0.5q-1-0.5-2-0.8l-1-0.2-0.2-0.5-0.3-0.5-0.3-0.2-0.2-0.3-1-0.5-1-0.5-1-0.5q-1-0.5-6.8-2.8-5.7-2.2-9.2-9.2t-10.8-9.2q-7.2-2.3-18-8l-10.7-5.8-0.3-0.2-0.2-0.3-0.2-0.3-0.3-0.2-0.3-0.2-0.2-0.3-0.2-0.3-0.3-0.2-0.3-0.2-0.2-0.3-0.2-0.3-0.3-0.2-0.3-0.2-0.2-0.3-0.2-0.3-0.3-0.2-0.3-0.2-0.2-0.3-0.2-0.3-0.3-0.2-0.3-0.2-0.2-0.3-0.2-0.3-0.3-0.2-0.3-0.2-0.2-0.3h2l0.2 0.3 0.3 0.2 0.3 0.2 0.2 0.3 2 1q2 1 5.5 1h3.5l0.2-0.3 0.3-0.2v-5l-0.5-1.5-0.5-1.5-0.5-1.5q-0.5-1.5-1.5-3t-6.7-7.7l-5.8-6.3-0.2-0.3-0.3-0.2-0.3-0.2-0.2-0.3-0.2-0.3-0.3-0.2-0.3-1-0.2-1-2.5 0.2-2.5 0.3-0.2 0.3-0.3 0.2-0.5 1.5q-0.5 1.5-0.8 7.5l-0.2 6-1.5-0.2-1.5-0.3-0.2-0.3-0.3-0.2-0.5-1-0.5-1-0.3-0.2-0.2-0.3-0.2-0.3-0.3-0.2-0.3-0.2-0.2-0.3-0.2-0.3-0.3-0.2-0.5-1.5-0.5-1.5 0.5-6.5q0.5-6.5 3.8-10.7 3.2-4.3 7.2-6.3t12-2 9.8 4.3q1.7 4.2 2 4.7z"/>
  </g>
  <g fill="#fd0000" stroke="#fd0000">
   <path d="m296 510l1-0.5 4 0.5q4 0.5 10 5t10.2 12.2q4.3 7.8 5.8 14.3t1.8 13l0.2 6.5-1 0.2-1 0.3-2 0.5-2 0.5h-10l-1-0.3-1-0.2 0.2-1 0.3-1 0.5-1q0.5-1 0.5-10.5t-2.5-14l-2.5-4.5-0.3-0.2-0.2-0.3-1-0.5-1-0.5-0.2-0.3-0.3-0.2-0.3-0.2-0.2-0.3-0.2-0.3-0.3-0.2-0.3-0.2-0.2-0.3-1-0.5-1-0.5h-2l0.2 0.3 0.3 0.2 0.5 2 0.5 2 0.5 1 0.5 1 2 3q2 3 2.5 4l0.5 1 0.5 1 0.5 1 0.5 1.5 0.5 1.5 0.3 1 0.2 1-0.5-0.2-0.5-0.3-0.2-0.3-0.3-0.2-0.3-0.2-0.2-0.3-0.2-0.3-0.3-0.2-0.3-0.2-0.2-0.3-0.2-0.3-0.3-0.2-0.3-0.2-0.2-0.3-0.2-0.3-0.3-0.2-0.3-0.2-0.2-0.3-0.2-0.3-0.3-0.2-0.3-0.2q-0.2-0.3-1.2-0.8t-9-1-13 1.5-10.2 6.3l-5.3 4.2-0.3 0.2-0.2 0.3-0.2 0.3-0.3 0.2-0.3 0.2-0.2 0.3-0.2 0.3-0.3 0.2-0.3 0.2-0.2 0.3-0.2 0.3-0.3 0.2-0.5 1-0.5 1v-9l0.5-2.5q0.5-2.5 2.5-7.5t5.7-8.8q3.8-3.7 9.8-5.2t9.5-6.2l3.5-4.8 0.5-0.2q0.5-0.3 0.5-0.6v-0.2l0.5-0.2q0.5-0.3 0.7-0.6l0.3-0.2 0.3-0.2 0.2-0.3 1-0.5z"/>
   <path d="m616 591.5l0.5 1.5v7l-0.5 1.5-0.5 1.5-0.3 0.2-0.2 0.3-0.2 0.3-0.3 0.2-0.3 0.2-0.2 0.3h-2l-0.2-0.3-0.3-0.2-0.3-0.2-0.2-0.3-0.2-0.3-0.3-0.2-0.3-0.2-0.2-0.3-0.2-0.3-0.3-0.2-0.5-1q-0.5-1-2.8-3.8-2.2-2.7-10.2-2.7t-23.5 4.3l-15.5 4.2-1.2-6q-1.3-6-2-9-0.8-3 13.2-10.2 14-7.3 22.5-8.3t12.5 1 4 3-6.5 1.5-10.3 2.8q-3.7 2.2-3.4 3.4 0.2 1.3 4.7 0.3t10.5-1 9.8 3.7q3.7 3.8 4.2 4.8t1 2.5z"/>
  </g>
  <path d="m610.8 261.8l0.2-0.3 1-0.3 1-0.2v4l-2.2 16q-2.3 16 0.4 17.8 2.8 1.7 14.3 5.2t12.5 4l1 0.5 0.2 0.3 0.3 0.2 0.3 0.2 0.2 0.3 0.2 0.3 0.3 0.2v5l-0.5 1-0.5 1-0.5 1q-0.5 1-8.5 6.5t-10.5 9.5-12.2 3.8q-9.8-0.3-10.6 1-0.7 1.2-3.7 18.7t1 21 4.5 8.5-0.5 8.5-3.7 7.3q-2.8 3.7-6.8 6.2t-11 2.8l-7 0.2-1.8 9.5q-1.7 9.5-6.4 20.3-4.8 10.7-11.6 19-6.7 8.2-10 11-3.2 2.7-4.2 3.2l-1 0.5-1 0.5-1 0.5-0.2 0.3-0.3 0.2-0.3 1-0.2 1 1.5 0.2 1.5 0.3 1 0.5 1 0.5 10 5.7q10 5.8 10 6.8t4.2 4.5q4.3 3.5 11.8 13.5t10 15 2.8 5.2l0.2 0.3 0.2 0.3 0.3 0.2 0.5 1 0.5 1 0.3 0.2 0.2 0.3 0.2 0.3 0.3 0.2 0.3 1 0.2 1-1-0.2-1-0.3-0.2-0.3-0.3-0.2-0.3 0.2-0.2 0.3-0.2 0.3-0.3 0.2-0.3-0.2-0.2-0.3-0.2-0.3-0.3-0.2-0.3 1-0.2 1h-0.5l-0.5-1-0.5-1-0.5-1-0.5-1-0.5-1q-0.5-1-6-10.5t-12.5-16.5-14.3-11.2q-7.2-4.3-14.2-6l-7-1.8-0.8 20q-0.7 20 1.8 33t4 16 2 4l0.5 1 0.3 0.2 0.2 0.3 1 0.5 1 0.5 0.2 0.3 0.3 0.2 0.3 1 0.2 1-1-0.2-1-0.3-0.2-0.3-0.3-0.2-0.3-0.2-0.2-0.3-1-0.5-1-0.5-0.2-0.3-0.3-0.2-0.5 1-0.5 1-0.3 0.5-0.2 0.5h-0.5l-0.5-1-0.5-1-0.5-1q-0.5-1-3.5-11.5t-3.5-29.5 1-28l1.5-9 0.3-2 0.2-2-1 0.2-1 0.3-1.5 0.5-1.5 0.5-1.5 0.5-1.5 0.5-1.5 0.5q-1.5 0.5-5 2.2l-3.5 1.8-0.2-0.5q-0.3-0.5-1 1-0.8 1.5-1.8 1.7-1 0.3-1.8-1-0.7-1.2-2-1.7l-1.2-0.5-0.2 2.5q-0.3 2.5-6.8 13.5t-7.8 12.8q-1.2 1.7-2.2 2.2l-1 0.5-0.2 0.3-0.3 0.2-0.3 0.2-0.2 0.3-0.2 0.3-0.3 0.2-0.3 0.2-0.2 0.3-1 0.5-1 0.5-2.5 0.3-2.5 0.2 0.2-1 0.3-1 0.3-0.2 0.2-0.3 0.2-0.3 0.3-0.2 0.5-1 0.5-1 0.3-0.2 0.2-0.3 0.2-0.3 0.3-0.2 0.5-1q0.5-1 6.5-10.5l6-9.5 0.3-0.2 0.2-0.3 0.2-0.3 0.3-0.2 0.3-0.2 0.2-0.3 0.2-0.3 0.3-0.2 0.5-1.5 0.5-1.5 0.3-0.2 0.2-0.3-2-0.3-2-0.2v-0.5l0.2-0.3 0.3-0.2 0.3-1 0.2-1-1-0.2-1-0.3 0.2-0.3 0.3-0.2 0.3-0.2 0.2-0.3 0.2-0.3 0.3-0.2v-2l-0.3-0.2-0.2-0.3v-0.5l1 0.2 1 0.3 11.5-1q11.5-1 21-5t16.7-10.3q7.3-6.2 13.8-17.2t9.5-21.5 3.7-14.7q0.8-4.3 8.3-4.3t11.3-2.3q3.7-2.2 5.7-6.2t2-7.5v-3.5l-0.5-1.5-0.5-1.5-0.3-0.2-0.2-0.3-0.2-0.3-0.3-0.2-0.3-0.2-0.2-0.3h-5.5q-5.5 0-9 1.5t-9.5 3.2q-6 1.8-6.2 0.3-0.3-1.5-3-2.3l-2.8-0.7-1-0.3-1-0.2 0.2-4q0.3-4 1.8-9.5t3.8-8.7q2.2-3.3 5.2-2.6 3 0.8 2.2-14.2-0.7-15-4-30-3.2-15-14.7-16.2-11.5-1.3-31.5-5.8l-20-4.5-2-0.5-2-0.5v-0.5l1.5-0.2 1.5-0.3-0.2-0.3-0.3-0.2-0.3-0.2-0.2-0.3 1.5-0.5 1.5-0.5v-0.5h0.5l0.3 0.2 0.2 0.3 19.5 4q19.5 4 30 5t32.5 0.7q22-0.2 25.8-15.2 3.7-15 4-16l0.2-1h0.5l0.3-0.2z" fill="#0000fe" stroke="#0000fe"/>
  <path d="m451.8 739.5l0.2-1.5h2.5l0.3 0.2 0.2 0.3 1.8 1.3q1.7 1.2 1.4 2.2-0.2 1 0.8 0.8l1-0.3 1.5-0.3q1.5-0.2 2 1 0.5 1.3 4.5 0 4-1.2 4-0.2t7 0.2q7-0.7 7.5-0.4l0.5 0.2v0.2q0 0.3-98 30.3t-150 43-94 20-75 9-48 0l-15-2-1-0.5-1-0.5-1-0.3-1-0.2 0.2 2.5 0.3 2.5 0.3 3 0.2 3-0.5-0.2-0.5-0.3-0.2-0.3-0.3-0.2-0.3-0.2-0.2-0.3-0.2-0.3-0.3-0.2-0.3-0.2-0.2-0.3-0.2-0.3-0.3-0.2h-0.5v-25h0.5l0.5 1 0.5 1 0.3 0.2 0.2 0.3 0.2 0.3 0.3 0.2 0.3 0.2 0.2 0.3 1 0.5 1 0.5 4.5 1.5q4.5 1.5 36.5 1.5t77-6 84-15 50.2-12.3q11.3-3.2 11.6-3.2h0.2l0.5-0.2 0.5-0.3 0.2-0.3 0.3-0.2 0.3-0.2 0.2-0.3 0.2-0.3 0.3-0.2 0.3-0.2 0.2-0.3 0.2-0.3 0.3-0.2 0.3-1q0.2-1 12.2-3.8 12-2.7 35.8-10 23.7-7.2 29-9 5.2-1.7 9.2-2.7t2.5-1.5 6-3 8.5-3l1-0.5h5l0.2-0.3 0.3-0.2 0.3-1 0.2-1 2.5 1.2q2.5 1.3 9.5-1.2t9-3l2-0.5 1.5-0.3 1.5-0.2h0.5l0.3 0.2 0.2 0.3 0.2 0.3 0.3 0.2 0.3 1 0.2 1 11.5-2.2q11.5-2.3 16-3.8t8.7-4.8q4.3-3.2 4.6-4.7z" fill="#f1e3df" stroke="#f1e3df"/>
  <path d="m362 419.5v-1.5l4 10.8q4 10.7 10.5 18.2t18.5 13.5 15.8 7.7q3.7 1.8 8.4 8 4.8 6.3 9.3 8.8t7.5 2 6.5-3 8-3.5 13.5-1 16.5 0.3l7.5 0.2v0.5l0.2 0.3 0.3 0.2v2l-0.3 0.2-0.2 0.3-0.2 0.3-0.3 0.2-0.3 0.2-0.2 0.3 1 0.3 1 0.2-0.2 1-0.3 1-0.3 0.2-0.2 0.3v0.5h-0.5l-0.3 0.2-0.2 0.3-0.2 0.3-0.3 0.2-0.3 0.2-0.2 0.3-1 0.5-1 0.5-1.5 0.5q-1.5 0.5-16.7 11.8-15.3 11.2-21.6 12.7l-6.2 1.5 0.2 1 0.3 1 0.3 0.2 0.2 0.3 2.5 0.5 2.5 0.5 0.2 0.3 0.3 0.2 0.3 0.2 0.2 0.3-0.2 0.3-0.3 0.2-0.3 0.2-0.2 0.3-1 0.5-1 0.5h-6q-6 0-8-1t-5.8-4.7l-3.7-3.8-0.5-1.5-0.5-1.5-0.3-1-0.2-1 1.5 0.8q1.5 0.7 3.5 0.7h2l-0.2-0.3-0.3-0.2-0.5-1-0.5-1-0.3-0.2-0.2-0.3-0.2-0.3-0.3-0.2-0.3-0.2-0.2-0.3-0.2-0.3-0.3-0.2-0.5-1-0.5-1-0.3-0.2-0.2-0.3-0.2-0.3-0.3-0.2-0.3-0.2-0.2-0.3-0.2-0.3-0.3-0.2-0.3-1.5-0.2-1.5-1-0.2-1-0.3-0.2-0.3-0.3-0.2-0.3 0.2-0.2 0.3-0.2 0.3-0.3 0.2-0.5 2-0.5 2-1.5 5q-1.5 5-2 6.5l-0.5 1.5-0.3 2-0.2 2h-3l-0.2-2-0.3-2-0.3 0.2-0.2 0.3-0.2 0.3-0.3 0.2-0.3 0.2-0.2 0.3-0.5 0.3-0.5 0.2 0.2-1.5 0.3-1.5 0.5-2q0.5-2 3.5-11t3.5-17l0.5-8-0.3-1-0.2-1-1 0.2-1 0.3-0.2 0.3-0.3 0.2-0.3 0.2-0.2 0.3-0.2 0.3-0.3 0.2-0.5 1-0.5 1-0.3 0.2-0.2 0.3-0.2 0.3-0.3 0.2-0.3 0.2-0.2 0.3-9.2 13.7q-9.3 13.8-13.8 22.8t-4.8 9h-0.2v-0.2q0-0.3-1-0.8t-1.8-0.2q-0.7 0.2-4 6.7-3.2 6.5-17.7 11.3l-14.5 4.7-1-0.5-1-0.5-0.2-0.3q-0.3-0.2-0.8-4.2t-2-7.5-7.5-13.5-7-13 1.3-4.8q2.2-1.7 2.2-3.4v-1.8l0.5-0.2q0.5-0.3 0.5-0.6v-0.2l22-12.2q22-12.3 28.5-14.3t12-2.3l5.5-0.2v-2l-1-0.2-1-0.3-0.2-0.3-0.3-0.2-0.3-0.2-0.2-0.3-1-0.5-1-0.5-1-0.5q-1-0.5-2.5-1.5t-6.7-6.3q-5.3-5.2-9.8-14.2t-5.8-15.5l-1.2-6.5h0.5l0.3 0.2 0.2 0.3 0.2 0.3 0.3 0.2 0.3 0.2 0.2 0.3 1 0.3 1 0.2v-1.5zm60 78.5l-0.5-1-0.5-1.5-0.5-1.5-0.5-1.5-0.5-1.5-0.3-1.5-0.2-1.5 2 0.2 2 0.3 4.5 2.5q4.5 2.5 8 2t13-4.5 17.5-3.5 8.8 1.2q0.7 0.8-5 6.6-5.8 5.7-13.8 9.7t-17 4-12.8-3.7q-3.7-3.8-4.2-4.8z" fill="#c90035" stroke="#c90035"/>
  <path d="m502.2 594.2l-0.2 0.3-0.2 0.3-0.3 0.2-0.5 1-0.5 1-0.3 0.2-0.2 0.3-1 0.5q-1 0.5-6 3t-13 3-14-1.5-6.2-5.7q-0.3-3.8 1-4.3 1.2-0.5 1-1.5-0.3-1-3-2.2-2.8-1.3-3-4l-0.3-2.8 0.3-0.2 0.2-0.3 0.2-0.3 0.3-0.2 4.7-3.2q4.8-3.3 8.3-4.3t10.5-0.5 8.2 1.2q1.3 0.8 0.8 5.3t-0.2 5.3q0.2 0.7 7.7 3.7t6.7 4.3q-0.7 1.2-1 1.4z" fill="#0000fe" stroke="#0000fe"/>
  <path d="m345.8 563.8l0.2-0.3h3l-0.2 0.3-0.3 0.2-0.3 0.2-0.2 0.3-0.2 0.3-0.3 0.2-0.3 0.2-0.2 0.3 2 0.5 2 0.5 0.2 0.3 0.3 0.2-0.7 0.8q-0.8 0.7 0.4 2 1.3 1.2 2 1.7 0.8 0.5 0.8 2.7 0 2.3 0.8 2 0.7-0.2 3.2 3.8t3.2 3.2q0.8-0.7 1.8-0.4 1 0.2 1.2-1.8 0.3-2 0.6-2h0.2l2.8 10.5q2.7 10.5 7.7 17.5t6 8.5 1 4-0.5 5l-0.5 2.5v2l0.5 1 0.5 1 0.3 0.2 0.2 0.3h1l0.2-0.3 0.3-0.2 0.3-0.2 0.2-0.3 0.2-0.3 0.3-0.2 0.5-1 0.5-1 0.5-1.5 0.5-1.5v-4.5q0-4.5-4-14t-4-15v-5.5l0.5-1 0.5-1 0.5-1 0.5-1 0.3-0.2 0.2-0.3 1-0.5 1-0.5 1-0.3 1-0.2-0.2 1-0.3 1-0.5 1.5-0.5 1.5 0.5 6q0.5 6 4 16t3 16.5-2.2 8.7q-1.8 2.3-2 2.6l-0.3 0.2-0.3 0.2-0.2 0.3-0.2 0.3-0.3 0.2-0.3 0.2-0.2 0.3-0.2 0.3-0.3 0.2-0.3 0.2-0.2 0.3 2.5 0.5 2.5 0.5 14 1q14 1 15.5 1.3l1.5 0.2v0.5l0.2 0.3 0.3 0.2 0.3 0.2 0.2 0.3 0.2 0.3 0.3 0.2 0.3 1 0.2 1 2.5 0.2 2.5 0.3 2.5-0.5q2.5-0.5 3 0t4 0.8l3.5 0.2v2h2v2l-2.5 0.2-2.5 0.3h-1l-0.2-0.3q-0.3-0.2-0.6 0.8-0.2 1-6.7 1h-6.5l-16-1q-16-1-14.2 5 1.7 6 2 10l0.2 4 4.5-0.2q4.5-0.3 6.5-0.6l2-0.2v0.5l6.5 0.3 6.5 0.2-0.2 3q-0.3 3 0 4l0.2 1-0.2 2-0.3 2-0.5 1.5-0.5 1.5-0.5 1.5-0.5 1.5-0.3 0.2-0.2 0.3-0.2 0.3-0.3 0.2-0.3 0.2-0.2 0.3-1 0.5-1 0.5h-3l-1-0.5-1-0.5-0.2-0.3-0.3-0.2-0.3-0.2q-0.2-0.3-0.4-0.6-0.3-0.2-1.8-5.7t-16.2-6l-14.8-0.5-1.2 13.5q-1.3 13.5-1.8 14.5l-0.5 1-0.5 1-0.5 1-0.3 0.2-0.2 0.3-1 0.5-1 0.5-0.2 0.3-0.3 0.2-0.3 0.2-0.2 0.3h-4l-0.2-0.3-0.3-0.2-0.3-0.2-0.2-0.3-0.2-0.3-0.3-0.2-0.5-1-0.5-1-0.5-3q-0.5-3-1.5-7.5l-1-4.5-0.3-0.2-0.2-0.3-0.2-0.3-0.3-0.2-0.3-0.2-0.2-0.3-0.2-0.3-0.3-0.2-0.3 0.2-0.2 0.3-2.5 2.5q-2.5 2.5-4.5 2.5h-2l-0.2-0.3-0.3-0.2-0.5-1-0.5-1-0.5-1.5q-0.5-1.5-0.8-10-0.2-8.5-5.2-9.3-5-0.7-9.5-2.7l-4.5-2-0.2-0.3-0.3-0.2-0.3-0.2-0.2-0.3-0.2-0.3-0.3-0.2-0.3-0.2-0.2-0.3-0.2-0.3-0.3-0.2-0.5-1-0.5-1v-3q0-3 2.3-4.2l2.2-1.3 1-0.5 1-0.5 1-0.3 1-0.2v-2l-2.5 0.2-2.5 0.3-1.5 0.5-1.5 0.5-1 0.5-1 0.5-4.5 1.7q-4.5 1.8-3.3 28.8 1.3 27 5.3 36.5t8.7 14.3q4.8 4.7 14.3 8.7t24 6 22.5 2 14-0.5l6-0.5h7l-1 0.5-1 0.5-1.5 0.5-1.5 0.5v0.5l-1.5 0.2-1.5 0.3-2 0.5q-2 0.5-9 3t-9.5 1.2l-2.5-1.2-0.5-0.2-0.5-0.3-1-0.5-1-0.5-1.5-0.5-1.5-0.5-2.5-0.5q-2.5-0.5-10 0t-12 3.5-12.5 1.5-8-6.8q0-5.2-1-5.4-1-0.3-5.5-4.8t-8.7-11.8q-4.3-7.2-7.3-18.7t-3.7-28q-0.8-16.5-1.8-16.7-1-0.3-29-1.3l-28-1-2.5-0.5-2.5-0.5-0.2-0.3-0.3-0.2-0.3-0.2-0.2-0.3 1-0.5 1-0.5 1-0.5 1-0.5 2-0.5 2-0.5 26.5-0.5q26.5-0.5 33-4.5t14.5-7 12-3.5 9.5-1l5.5-0.5-0.2-0.3-0.3-0.2-0.3-0.2-0.2-0.3v-0.5l-0.2-1-0.3-1-0.5-1-0.5-1-0.3-0.2-0.2-0.3 1.5-0.5 1.5-0.5 1-0.3 1-0.2 1 0.2q1 0.3 2 0.8l1 0.5 3 0.3 3 0.2 0.2-1 0.3-1 0.3-0.2 0.2-0.3-0.2-0.3-0.3-0.2-0.5-1.5q-0.5-1.5-1.8-2.7l-1.2-1.3-0.2-0.3-0.3-0.2v-2l0.3-0.2 0.2-0.3h4l0.2 0.3 0.3 0.2 0.3 0.2 0.2 0.3 0.2 0.3 0.3 0.2 1.7 2.2q1.8 2.3 2 2.6l0.3 0.2 0.3 0.2 0.2 0.3 0.2 0.3 0.3 0.2 0.3 0.2 0.2 0.3 0.2 0.3 0.3 0.2 0.3 0.2 0.2 0.3 1.5 0.3 1.5 0.2-0.2-3-0.3-3-0.5-1q-0.5-1-2.5-3.5l-2-2.5-0.3-0.2-0.2-0.3-0.2-0.3-0.3-0.2-0.5-1-0.5-1-0.3-1.5-0.2-1.5 2 0.2 2 0.3 2 1.5q2 1.5 2.2 1.8l0.3 0.2 0.3 1 0.2 1 1-0.2 1-0.3 0.2-0.3 0.3-0.2v-3l-0.5-1-0.5-1-0.3-0.2-0.2-0.3-0.2-0.3-0.3-0.2-0.3-0.2-0.2-0.3-1-0.5-1-0.5-0.2-0.3-0.3-0.2-0.3-0.2q-0.2-0.3-1.2-0.8t-10.5-2.8l-9.5-2.2-0.2-0.5-0.3-0.5-0.3-0.2-0.2-0.3-0.2-0.3-0.3-0.2-0.5-2.5-0.5-2.5-0.3-0.2-0.2-0.3 0.2-0.3q0.3-0.2 0.3-1.2t-2.5-3.5-5.8-11.5q-3.2-9-2.2-9t2-2.2q1-2.3 1.8-1 0.7 1.2 2.2-1.3t1.2-3.3l-0.2-0.7 0.2-0.3 0.3-0.2 0.3-0.2zm38.2 106l-6 0.2-0.2-1.5q-0.3-1.5-3.3-12.5l-3-11-0.3-2.2q-0.2-2.3 2.8-3.3t5.8 2.7q2.7 3.8 6.4 15.6 3.8 11.7-2.2 12zm-26-17q10-0.8 11.2 6.2 1.3 7-12 7.2-13.2 0.3-19.2-1.7t-7.2-4.3q-1.3-2.2 8-4.4 9.2-2.3 19.2-3z" fill="#0202fd" stroke="#0202fd"/>
  <path d="m555.8 69.8l0.2-0.3h2l-0.2 0.3-0.3 0.2-0.3 0.2-0.2 0.3-0.2 0.3-0.3 0.2-0.5 1-0.5 1-0.3 0.2-0.2 0.3-0.2 0.3-0.3 0.2-0.3 0.2-0.2 0.3-0.2 0.3-0.3 0.2-0.3 0.2-0.2 0.3-0.2 0.3-0.3 0.2-0.3 0.2-0.2 0.3-22.2 29.3q-22.3 29.2-36.8 51.7t-25 44-9.8 23.7q0.8 2.3 18.8 12.3t39 17 33.5 9 22 2 19.5 0h10l-1 0.5-1 0.5-2.5 0.5-2.5 0.5-3.5 0.5q-3.5 0.5-23 0.5t-33-2.5-28.5-8-30.5-14.5-25-17.5l-9.5-8.5-0.2-0.3-0.3-0.2-0.3-0.2-0.2-0.3-0.2-0.3-0.3-0.2-0.3-0.2-0.2-0.3-0.2-0.3-0.3-0.2-0.3-0.2-0.2-0.3-0.2-0.3-0.3-0.2-0.3 0.2-0.2 0.3-0.2 0.3-0.3 0.2-0.5 1.5-0.5 1.5-4 10q-4 10-3.3 12.2 0.8 2.3 10.3 11.3t23.5 17 20.5 10.5 8 3l1.5 0.5 1.5 0.5 1.5 0.5 1 0.3 1 0.2v0.5l-1.5 0.5-1.5 0.5 0.2 0.3 0.3 0.2 0.3 0.2 0.2 0.3-1.5 0.3-1.5 0.2-1-0.2-1-0.3-1.5-0.5q-1.5-0.5-9.5-3.5t-27.2-13.3q-19.3-10.2-20.3-10.2t-14.3 19.2q-13.2 19.3-24.4 39.6-11.3 20.2-18.3 38.2l-7 18-0.5 1.5-0.5 1.5v3l0.3-0.2 0.2-0.3 0.2-0.3 0.3-0.2 0.5-1 0.5-1 1.3-3.5q1.2-3.5 5.2-3.3l4 0.3 1 0.3 1 0.2 0.2 1 0.3 1 0.3 0.2 0.2 0.3 0.2 0.3 0.3 0.2 0.3 0.2 0.2 0.3 0.2 0.3 0.3 0.2v9.5q0 9.5-0.5 10.5l-0.5 1-0.3 1-0.2 1-2.5 0.2-2.5 0.3-0.2 0.3-0.3 0.2-0.3 0.2-0.2 0.3h-4l-1-0.3-1-0.2-0.2-1q-0.3-1-1-2.2-0.8-1.3-2-7.6l-1.3-6.2-0.5 2-0.5 2-0.5 2.5-0.5 2.5-0.5 3q-0.5 3-0.8 13.5l-0.2 10.5v3l-1-0.2-1-0.3-0.2-0.3-0.3-0.2-0.3-0.2-0.2-0.3-0.2-0.3-0.3-0.2h-1v-13q0-13 2-24t8-27.5 15-32l9-15.5 0.3-0.2 0.2-0.3 0.2-0.3 0.3-0.2 0.3-0.2 0.2-0.3 0.2-0.3 0.3-0.2 0.3-0.2 0.2-0.3 0.2-0.3 0.3-0.2v-2l-0.3-0.2-0.2-0.3h-2l-1.5 0.5q-1.5 0.5-7 1l-5.5 0.5-1-0.3-1-0.2 0.2-4q0.3-4 2.3-8.5l2-4.5-0.3-0.2-0.2-0.3-1.5-0.5q-1.5-0.5-7.3-2.8-5.7-2.2-6.2-6.2l-0.5-4 1.7-3.8q1.8-3.7 7.8-6.7t7-3.5l1-0.5-0.2-0.3-0.3-0.2-0.5-1q-0.5-1-1.5-3t-1-9v-7l0.3-0.2 0.2-0.3 0.2-0.3 0.3-0.2 0.3-0.2 0.2-0.3 4-1.5q4-1.5 14.5 2t15.5 3.8q5 0.2 20.5-32.6 15.5-32.7 21.7-44.4 6.3-11.8 6.6-12.3l0.2-0.5 16-25.2q16-25.3 20.8-32 4.7-6.8 5.2-7.8l0.5-1 0.5-1 0.5-1 0.3-0.2 0.2-0.3 0.2-0.3 0.3-0.2 0.3-0.2 0.2-0.3 0.5-0.3 0.5-0.2 0.2 1 0.3 1 0.3-0.2 0.2-0.3 1-0.3 1-0.2-0.2 1-0.3 1-0.3 0.2-0.2 0.3-1 0.5-1 0.5-0.2 0.3-0.3 0.2-0.5 1-0.5 1-0.5 1q-0.5 1-2.2 3.2-1.8 2.3-18.6 28.6-16.7 26.2-29.2 51.2t-12.5 34v9l0.5 1 0.5 1 0.3 0.2 0.2 0.3 0.2 0.3 0.3 0.2 0.3 0.2 0.2 0.3 0.2 0.3 0.3 0.2 0.3 0.2 0.2 0.3 0.2 0.3 0.3 0.2 0.3 0.2 0.2 0.3 1 0.5 1 0.5h2l0.2-0.3 0.3-0.2 0.5-1 0.5-1 14-28q14-28 27.5-48.5t28.8-39.3q15.2-18.7 20-23 4.7-4.2 5-4.4l0.2-0.3 0.2-0.3 0.3-0.2 0.3-0.2 0.2-0.3 0.2-0.3 0.3-0.2 0.3-0.2 0.2-0.3 0.2-0.3 0.3-0.2 0.3-0.2 0.2-0.3 1-0.5 1-0.5 0.2-0.3 0.3-0.2 0.3-0.2z" fill="#0303fd" stroke="#0303fd"/>
  <path d="m407 651l16 1v0.5l3.5 0.5 3.5 0.5 4.5 1q4.5 1 6 1.5l1.5 0.5 1 0.5 1 0.5 1.5 0.5 1.5 0.5 0.2 0.3 0.3 0.2v2l-0.3 0.2-0.2 0.3-1 0.5-1 0.5-1.5 0.5-1.5 0.5-1 0.5q-1 0.5-13.5 2.5l-12.5 2-3.5 0.3-3.5 0.2-2 0.2q-2 0.3-6.5 0.6l-4.5 0.2-0.2-4q-0.3-4-2-10-1.8-6 14.2-5z" fill="#9999fd" stroke="#9999fd"/>
  <path d="m407 385.8l-1-3.8 1.8 1q1.7 1 4.4 4.8 2.8 3.7 9.3 8.7t16.5 8 12.5 3.5 19.5 0.5h17l2-0.3 2-0.2-0.2 2.5-0.3 2.5-0.5 2q-0.5 2-3.5 8.5t-7.7 12.3q-4.8 5.7-13.8 10.7t-17 6-13-0.5-8.8-4.8q-3.7-3.2-6.7-9.2t-4-23-4.3-21.2q-3.2-4.3-4.2-8z" fill="#0101fe" stroke="#0101fe"/>
  <path d="m584.2 537l0.3-1 0.3 0.2 0.2 0.3 0.2 0.3 0.3 0.2 0.3-0.2 0.2-0.3 1-0.3 1-0.2v0.2q0 0.3 0.5 0.6l0.5 0.2 6.5 12.2q6.5 12.3 11.3 15 4.7 2.8 8.2 12.3t5 13 1 9-11.5 20-18.3 20.3q-7.2 5.7-12.2 8.7t-6 3.5l-1 0.5-0.2 0.3-0.3 0.2-0.3 0.2-0.2 0.3-0.2 0.3-0.3 0.2-0.3 0.2-0.2 0.3-1 0.5-1 0.5-0.2 0.3-0.3 0.2-0.3 1-0.2 1 1.5 0.2 1.5 0.3 5.5 0.5q5.5 0.5 18.5 0.5h13l1.5 0.5 1.5 0.5 0.2 0.3 0.3 0.2 0.3 0.2 0.2 0.3-0.2 0.3-0.3 0.2-0.3 0.2-0.2 0.3-1 0.5-1 0.5-1.5 0.5-1.5 0.5-3 0.5q-3 0.5-20 0.5t-19.2 9.3q-2.3 9.2-4.6 14.7-2.2 5.5-17.7 5.3-15.5-0.3-17.3-3.6-1.7-3.2-2.7-12.7t-3.7-10.7q-2.8-1.3-23.8-2l-21-0.8-1.2 21.5q-1.3 21.5-4.8 32t-5.5 14-2.3 3.7l-0.2 0.3-1 0.5-1 0.5-1 0.5-1 0.5v0.5h-2.5l-0.3 0.2-0.2 0.3h-3l0.2-0.3 0.3-0.2 0.3-0.2 0.2-0.3 1-0.5 1-0.5 0.2-0.3 0.3-0.2 0.3-0.2 0.2-0.3 0.2-0.3 0.3-0.2 0.3-0.2 0.2-0.3 0.2-0.3 0.3-0.2 0.3-0.2 0.2-0.3 0.2-0.3q0.3-0.2 1-1.4 0.8-1.3 4.6-9.6 3.7-8.2 4.7-36.2t-4.7-31.2l-5.8-3.3-2-0.5-2-0.5-0.2-0.3-0.3-0.2-0.3 0.2-0.2 0.3-2 0.5-2 0.5 1 0.5 1 0.5 3.2 1.7q3.3 1.8 3.8 2.8t0.5 3v2l-0.3 0.2-0.2 0.3-0.2 0.3-0.3 0.2-0.5 1-0.5 1-0.3 0.2-0.2 0.3-0.2 0.3-0.3 0.2-0.3 0.2-0.2 0.3-1 0.5q-1 0.5-2 1t-13 3.5-12.8 4.7l-0.7 1.8h-0.5l-0.2-1q-0.3-1 0-4l0.2-3-6.5-0.2-6.5-0.3v-0.5l3.5-0.2 3.5-0.3 12.5-2q12.5-2 13.5-2.5l1-0.5 1.5-0.5 1.5-0.5 1-0.5 1-0.5 0.2-0.3 0.3-0.2v-2l-0.3-0.2-0.2-0.3-1.5-0.5-1.5-0.5-1-0.5-1-0.5-1.5-0.5q-1.5-0.5-6-1.5l-4.5-1-3.5-0.5-3.5-0.5v-0.5l5.5-0.8q5.5-0.7 7-0.7h2.5l2.5-0.3 2.5-0.2v-2h-2v-2l-3.5-0.2q-3.5-0.3-4-0.8t-3 0l-2.5 0.5-2.5-0.3-2.5-0.2-0.2-1-0.3-1-0.3-0.2-0.2-0.3-0.2-0.3-0.3-0.2-0.3-0.2-0.2-0.3v-0.5l3 0.2 3 0.3 11.5 2q11.5 2 20.3 5.7 8.7 3.8 11.4 6 2.8 2.3 22.8 1.8t32.8-12.2q12.7-11.8 17.7-19.8t6.5-13.5 1-15-1.2-12.5q-0.8-3-6.6-6.5-5.7-3.5-7-4.7-1.2-1.3-1.4-1.6l-0.3-0.2-0.3-0.2-0.2-0.3-0.2-0.3-0.3-0.2-0.5-1-0.5-1-0.5-1-0.5-1-0.3-0.2-0.2-0.3v-0.5l0.2-0.5 0.3-0.5 0.5-1 0.5-1 0.3 0.2 0.2 0.3 1.5 0.3 1.5 0.2v0.2q0 0.3 0.5 0.6l0.5 0.2v0.2q0 0.3 0.5 0.6l0.5 0.2h0.5l0.3 0.2 0.2 0.3 1 0.5 1 0.5h2l-0.2-0.3-0.3-0.2-0.3-0.2-0.2-0.3-0.2-0.3-0.3-0.2-0.5-1.5-0.5-1.5-0.5-2.5q-0.5-2.5-0.5-7v-4.5l0.3-1 0.2-1 1 0.2 1 0.3 0.2 0.3 0.3 0.2 0.5 1 0.5 1 0.5 1.5 0.5 1.5 3 11q3 11 3.5 12l0.5 1 0.3 0.2 0.2 0.3 6-2q6-2 17-6t14-4.5l3-0.5 1-0.3 1-0.2-0.2-1-0.3-1-0.5-1q-0.5-1-4.8-11.5l-4.2-10.5 0.2-1zm31.8 54.5l0.5 1.5v7l-0.5 1.5-0.5 1.5-0.3 0.2-0.2 0.3-0.2 0.3-0.3 0.2-0.3 0.2-0.2 0.3h-2l-0.2-0.3-0.3-0.2-0.3-0.2-0.2-0.3-0.2-0.3-0.3-0.2-0.3-0.2-0.2-0.3-0.2-0.3-0.3-0.2-0.5-1q-0.5-1-2.8-3.8-2.2-2.7-10.2-2.7t-23.5 4.3l-15.5 4.2-1.2-6q-1.3-6-2-9-0.8-3 13.2-10.2 14-7.3 22.5-8.3t12.5 1 4 3-6.5 1.5-10.3 2.8q-3.7 2.2-3.4 3.4 0.2 1.3 4.7 0.3t10.5-1 9.8 3.7q3.7 3.8 4.2 4.8t1 2.5zm-10.2 13.5l-0.3 2-2 5.5q-2 5.5-6 11t-15.3 14.3q-11.2 8.7-17.4 15-6.3 6.2-7.3 15.7t-3 15-14.7 5q-12.8-0.5-14-11.5-1.3-11-3.6-16.5-2.2-5.5-1.2-5.7 1-0.3 5.5-3.8t12.7-13.2q8.3-9.8 16-18.6 7.8-8.7 14.8-13.2t16-5 14.5 0.8q5.5 1.2 5.3 3.2z" fill="#0403fc" stroke="#0403fc"/>
  <path d="m1003 868.5l0.5-3.5 0.5 1q0.5 1 0.8 1h0.2v51l-0.5 0.2-0.5 0.3-0.2 0.3-0.3 0.2-0.3 0.2-0.2 0.3 0.2 0.3 0.3 0.2v1l-0.3 0.2-0.2 0.3-1.5 0.3q-1.5 0.2-1.5 1.2t-1.5 1-1.5 1-3 1.2q-3 0.3-11 2.3t-15 2-7.5 0.7q-0.5 0.8-21.3 1.3-20.7 0.5-23 0-2.2-0.5-2 0.5 0.3 1-1 1.5l-1.2 0.5-0.2-1.5q-0.3-1.5-0.3-4t-1.3-2.7q-1.2-0.3-2.2-4.8t-2.8-9.2q-1.7-4.8-9.4-4.6-7.8 0.3-37.8 3.3t-85.5 9.5-87.5 6.5-42.5-2.5l-10.5-2.5-0.2-0.3q-0.3-0.2-0.6-0.4l-0.2-0.3-1-0.5-1-0.5-0.2-0.3-0.3-0.2v-1q0-1 2.5-2.5t0.2-4.7q-2.2-3.3-2.2-4.3v-1l0.2-0.3 0.3-0.2 0.3-0.2 0.2-0.3v-5.5h0.5l0.5 3 0.5 3 0.3 0.2 0.2 0.3h1l0.2-0.3 0.3-0.2 0.3-0.2 0.2-0.3 0.2-0.3 0.3-0.2 2.7-1.8q2.8-1.7 4.3-1.7t2 0.3l0.5 0.2 1 0.2 1 0.3 1.5 0.5 1.5 0.5 6 1q6 1 28.5 0.5t113-10 132-9.5 54.5 2.5 14 3 2 1l1 0.5 0.2 0.3 0.3 0.2 0.3 0.2 0.2 0.3 0.2 0.3 0.3 0.2 0.3 0.2 0.2 0.3 0.2 0.3 0.3 0.2v-9q0-9-0.3-11.5l-0.2-2.5h0.5l0.5-3.5z" fill="#f1e6e2" stroke="#f1e6e2"/>
  <path d="m422 498l-0.5-1-0.5-1.5-0.5-1.5-0.5-1.5-0.5-1.5-0.3-1.5-0.2-1.5 2 0.2 2 0.3 4.5 2.5q4.5 2.5 8 2t13-4.5 17.5-3.5 8.8 1.2q0.7 0.8-5 6.6-5.8 5.7-13.8 9.7t-17 4-12.8-3.7q-3.7-3.8-4.2-4.8z" fill="#fdf6f7" stroke="#fdf6f7"/>
  <path d="m0 922.5v-72.5h0.5l0.3 0.2 0.2 0.3 0.2 0.3 0.3 0.2 0.3 0.2 0.2 0.3 0.2 0.3 0.3 0.2 0.3 0.2 0.2 0.3 0.5 0.3 0.5 0.2 13.5 55.2q13.5 55.3 18.5 57.8t18.5 4.5 42.5 1.5 78-7 76-11.5 29-5.3l2-0.2v0.5l1.5 0.3 1.5 0.2v2l-2 0.2-2 0.3 0.2 0.3 0.3 0.2 0.3 0.2 0.2 0.3 0.2 0.3 0.3 0.2 0.3 0.2 0.2 0.3 3.8 0.7q3.7 0.8 6.2 1.3t2.8 2q0.2 1.5 37.7-4.7 37.5-6.3 68-10.8t44-6.5 90-19.5 78.5-18l2-0.5 0.2-0.3 0.3-0.2 0.3 0.2 0.2 0.3h1l0.2-0.3 0.3-0.2 0.3 0.2 0.2 0.3h5v0.5l-1.5 0.2-1.5 0.3-3.5 0.5q-3.5 0.5-115.5 26t-191.5 41-127 22l-47.5 6.5v0.5h-136v-72.5z" fill="#fcf8f8" stroke="#fcf8f8"/>
  <path d="m428 319q4-0.5 5.8 2.2 1.7 2.8 1.7 6.8t-1.3 5.2q-1.2 1.3-5.2 1.8t-6.2-1.2q-2.3-1.8-3-6.8-0.8-5 1.7-6.2 2.5-1.3 6.5-1.8z" fill="#0101fe" stroke="#0101fe"/>
  <path d="m282 516.2l10-6.2h0.5l0.3 1 0.2 1h-0.2q-0.3 0-0.6 0.5l-0.2 0.5-3.5 4.8q-3.5 4.7-9.5 6.2t-9.8 5.2q-3.7 3.8-5.7 8.8t-2.5 7.5l-0.5 2.5v9l0.5-1 0.5-1 0.3-0.2 0.2-0.3 0.2-0.3 0.3-0.2 0.3-0.2 0.2-0.3 0.2-0.3 0.3-0.2 0.3-0.2 0.2-0.3 0.2-0.3 0.3-0.2 5.3-4.2q5.2-4.3 10.2-6.3t13-1.5 9 1 1.2 0.8l0.3 0.2 0.3 0.2 0.2 0.3 0.2 0.3 0.3 0.2 0.3 0.2 0.2 0.3 0.2 0.3 0.3 0.2 0.3 0.2 0.2 0.3 0.2 0.3 0.3 0.2 0.3 0.2 0.2 0.3 0.2 0.3 0.3 0.2 0.3 0.2 0.2 0.3 0.5 0.3 0.5 0.2v1q0 1-1.5 1t-2.3 2.5q-0.7 2.5-1 2.5h-0.2l-0.2-0.5q-0.3-0.5-2-4.7-1.8-4.3-9.8-4.3t-12 2-7.2 6.3q-3.3 4.2-3.8 10.7l-0.5 6.5 0.5 1.5 0.5 1.5 0.3 0.2 0.2 0.3 0.2 0.3 0.3 0.2 0.3 0.2 0.2 0.3 0.2 0.3 0.3 0.2 0.5 1 0.5 1 0.3 0.2 0.2 0.3 1.5 0.3 1.5 0.2 0.2-6q0.3-6 0.8-7.5l0.5-1.5 0.3-0.2 0.2-0.3 2.5-0.3 2.5-0.2 0.2 1 0.3 1 0.3 0.2 0.2 0.3 0.2 0.3 0.3 0.2 0.3 0.2 0.2 0.3 5.8 6.3q5.7 6.2 6.7 7.7t1.5 3l0.5 1.5 0.5 1.5 0.5 1.5v5l-0.3 0.2-0.2 0.3h-3.5q-3.5 0-5.5-1l-2-1-0.2-0.3-0.3-0.2-0.3-0.2-0.2-0.3h-2l0.2 0.3 0.3 0.2 0.3 0.2 0.2 0.3 0.2 0.3 0.3 0.2 0.3 0.2 0.2 0.3 0.2 0.3 0.3 0.2 0.3 0.2 0.2 0.3 0.2 0.3 0.3 0.2 0.3 0.2 0.2 0.3 0.2 0.3 0.3 0.2 0.3 0.2 0.2 0.3 0.2 0.3 0.3 0.2 0.3 0.2 0.2 0.3 0.2 0.3 0.3 0.2 10.7 5.8q10.8 5.7 18 8 7.3 2.2 10.8 9.2t9.2 9.2q5.8 2.3 6.8 2.8l1 0.5 1 0.5 1 0.5 0.2 0.3 0.3 0.2 0.3 0.5 0.2 0.5-1 0.2-1 0.3-1.5 0.5-1.5 0.5 0.2 0.3 0.3 0.2 0.5 1 0.5 1 0.3 1 0.2 1-0.5-0.2-0.5-0.3-0.2-0.3-0.3-0.2-0.3-0.2-0.2-0.3-0.2-0.3-0.3-0.2-0.3-0.2-0.2-0.3-0.2-0.3-0.3-0.2-0.3-0.2-0.2-0.3-0.2-0.3-0.3-0.2-0.3-0.2-0.2-0.3-1-0.5q-1-0.5-8.5-4.8-7.5-4.2-9.7-9.2-2.3-5-9-7.2-6.8-2.3-16.8-7.8t-18.8-13.8q-8.7-8.2-17.2-21.2t-7.5-22.5 2.7-14.7q1.8-5.3 7.8-8.3t16-9.3z" fill="#0503fb" stroke="#0503fb"/>
  <g fill="#0101fe" stroke="#0101fe">
   <path d="m409.8 563.2l1.2-1.7 5.2 0.3q5.3 0.2 6.8 3.7t1.5 6.5v3l-0.3 0.2q-0.2 0.3-1.7 1.3t-6.5 0.3q-5-0.8-5.8-2.3-0.7-1.5-1.2-5.5t0.8-5.8z"/>
   <path d="m494.2 345.5l0.8-4.5 6.8 0.5q6.7 0.5 6.4 7.7-0.2 7.3-5.2 7.3t-7.2-3.3q-2.3-3.2-1.6-7.7z"/>
  </g>
  <path d="m358 652.8q10-0.8 11.2 6.2 1.3 7-12 7.2-13.2 0.3-19.2-1.7t-7.2-4.3q-1.3-2.2 8-4.4 9.2-2.3 19.2-3z" fill="#9898fe" stroke="#9898fe"/>
  <path d="m606 0.2v-0.2h10l12.5 3.2q12.5 3.3 23.3 9 10.7 5.8 22 15 11.2 9.3 19 19 7.7 9.8 13.2 21.3t6.5 15.5 0.5 14-7 23-22.8 32.8q-16.2 19.7-27 35-10.7 15.2-11 15.4l-0.2 0.3v0.5h-0.2q-0.3 0-7.3 11t-14.5 27.5l-7.5 16.5-0.5 1.5-0.5 1.5-0.5 1.5-0.5 1.5h-0.5v-4l-1 0.2-1 0.3-0.2 0.3-0.3 0.2h-0.5l0.2-1 0.3-1 0.5-1.5 0.5-1.5 0.5-1q0.5-1 4.5-10.5t14-27.5 29.3-43.8q19.2-25.7 33-44.4 13.7-18.8 14.2-27.8t-0.5-13.5-5-14.5-11.5-20.5-11.2-14q-3.8-3.5-4-4.5-0.3-1-3.8-4t-13.8-10.2q-10.2-7.3-20.7-10.8t-21-4-22 3-21 9.5-21 17-23.7 26.3l-12.3 15.2-0.3 0.2-0.2 0.3-0.2 0.3-0.3 0.2-0.3 0.2-0.2 0.3-0.2 0.3-0.3 0.2-0.3 0.2-0.2 0.3-0.2 0.3-0.3 0.2-0.3 0.2-0.2 0.3v0.5l-0.5 0.2-0.5 0.3v0.5l-0.5 0.2-0.5 0.3v0.5h-0.5l-0.3-1.5-0.2-1.5 0.2-1 0.3-1 0.3-0.2 0.2-0.3 0.2-0.3 0.3-0.2 0.3-0.2 0.2-0.3 0.2-0.3 0.3-0.2 12-15.5q12-15.5 23.7-27.3 11.8-11.7 23.8-19.2t19.5-10 11.5-3 4-0.8z" fill="#0707fd" stroke="#0707fd"/>
  <path d="m321 497.2l1-0.2-0.5 2.2q-0.5 2.3-2.7 4-2.3 1.8-1.3 4.8t7 13 7.5 13.5 2 7.5 0.8 4.2l0.2 0.3 1 0.5 1 0.5 14.5-4.7q14.5-4.8 17.7-11.3 3.3-6.5 4-6.7 0.8-0.3 1.8 0.2t1 0.8v0.2l-4.8 15q-4.7 15-5.2 18.5t-0.8 11.5l-0.2 8h-0.2q-0.3 0-0.6 2-0.2 2-1.2 1.8-1-0.3-1.8 0.4-0.7 0.8-3.2-3.2t-3.2-3.8q-0.8 0.3-1.6-2.4-0.7-2.8-2-4-1.2-1.3-0.4-2l0.7-0.8-0.3-0.2-0.2-0.3-2-0.5-2-0.5 0.2-0.3 0.3-0.2 0.3-0.2 0.2-0.3 0.2-0.3 0.3-0.2 0.3-0.2 0.2-0.3h-3l-0.2 0.3-0.3 0.2-0.3 0.2-0.2 0.3 0.2 0.7q0.3 0.8-1.2 3.3t-2.2 1.3q-0.8-1.3-1.8 1-1 2.2-2 2.2t2.2 9q3.3 9 5.8 11.5t2.5 3.5-0.3 1.2l-0.2 0.3 0.2 0.3 0.3 0.2 0.5 2.5 0.5 2.5 0.3 0.2 0.2 0.3 0.2 0.3 0.3 0.2 0.3 0.5 0.2 0.5-2.5-0.2-2.5-0.3-1.5-0.5-1.5-0.5-0.2-0.3-0.3-0.2-0.3-0.2-0.2-0.3-0.2-0.3q-0.3-0.2-0.8-0.7t-17.2-19.7q-16.8-19.3-18.3-24l-1.5-4.8h0.2q0.3 0 1-2.5 0.8-2.5 2.3-2.5t1.5-1v-1l-0.2-1-0.3-1-0.5-1.5-0.5-1.5-0.5-1-0.5-1-0.5-1q-0.5-1-2.5-4l-2-3-0.5-1-0.5-1-0.5-2-0.5-2-0.3-0.2-0.2-0.3h2l1 0.5 1 0.5 0.2 0.3 0.3 0.2 0.3 0.2 0.2 0.3 0.2 0.3 0.3 0.2 0.3 0.2 0.2 0.3 1 0.5 1 0.5 0.2 0.3 0.3 0.2 2.5 4.5q2.5 4.5 2.5 14t-0.5 10.5l-0.5 1-0.3 1-0.2 1 1 0.2 1 0.3h10l2-0.5 2-0.5 1-0.3 1-0.2-0.2-6.5q-0.3-6.5-1.8-13t-5.8-14.3q-4.2-7.7-10.2-12.2t-10-5l-4-0.5-1 0.5-1 0.5-0.2 0.3-0.3 0.2-0.3 1-0.2 1h-2l0.2-1 0.3-1 0.3-0.2 0.2-0.3-0.2-0.3-0.3-0.2h-0.5v-0.5l1-0.5 1-0.5 1.5-0.5 1.5-0.5 11.2-4.7q11.3-4.8 11.6-5 0.2-0.3 1.2-0.6z" fill="#0c05f6" stroke="#0c05f6"/>
  <path d="m384 669.8l-6 0.2-0.2-1.5q-0.3-1.5-3.3-12.5l-3-11-0.3-2.2q-0.2-2.3 2.8-3.3t5.8 2.7q2.7 3.8 6.4 15.6 3.8 11.7-2.2 12z" fill="#c9c9fd" stroke="#c9c9fd"/>
  <path d="m133.2 479l0.8-10h0.2q0.3 0 0.8 2l0.5 2 0.3 1q0.2 1 3.7 0.8 3.5-0.3 7.5-0.3t9.2 3.3q5.3 3.2 7.8 7.7t2.2 6.7q-0.2 2.3-1.2 2.6-1 0.2-3 3.4-2 3.3-6.5 5.3t-8.3 1.7q-3.7-0.2-4-2.2-0.2-2-1.2-2t-1.2-2.5l-0.3-2.5-0.3 0.2-0.2 0.3h-1l-0.2-0.3-0.3-0.2-1.5 4.5q-1.5 4.5-6.2 7.7-4.8 3.3-9.3 4.3t-8.5 1.3l-4 0.2-2.5 0.2q-2.5 0.3-8.5-3.2l-6-3.5-0.2-0.3-0.3-0.2-0.3-4.5-0.2-4.5h2l0.2 4 0.3 4 0.3 0.2 0.2 0.3 1 0.3 1 0.2 0.2-1.5 0.3-1.5 0.5-1q0.5-1 1.5-3t5.7-5.2q4.8-3.3 9.8-3.3t11 0.7l6 0.8 0.2-1q0.3-1 0.8-2t1.2-11z" fill="#cf0606" stroke="#cf0606"/>
 </g>
</svg>
